<?xml version="1.0" standalone="no"?>
<svg xmlns="http://www.w3.org/2000/svg" version="1.1" width="249" height="249">
	<!-- Created with https://api.qrserver.com (QR Code API, see goQR.me/api for information) -->
	<title>QR Code</title>
	<desc>https://pf.santandernet.com.br/br/group/santander/home?p_auth=lqUcO4vB&amp;p_p_id=W0000058_WAR_SpaMenu_WIDGET&amp;p_p_lifecycle=1&amp;p_p_state=maximized&amp;p_p_mode=view&amp;_W0000058_WAR_SpaMenu_WIDGET_base.portlet.backurl=https%3A%2F%2Fpf.santandernet.com.br%2Fbr%2Fgroup%2Fsantander%2Fhome%3Fp_p_id%3D%26p_p_state%3Dnormal%26p_p_mode%3Dview&amp;_W0000058_WAR_SpaMenu_WIDGET_javax.portlet.action=spaPixQRCodeStaticInit&amp;_W0000058_WAR_SpaMenu_WIDGET_base.portlet.view=initViewLanzador&amp;_W0000058_WAR_SpaMenu_WIDGET_idSecCSC=123</desc>
	<rect style="fill:rgb(255, 255, 255);fill-opacity:1" x="0" y="0" width="249" height="249" />
	<g id="elements">
		<path style="fill:rgb(0, 0, 0)" d="M 3,3 l 3,0 0,3 -3,0 z M 6,3 l 3,0 0,3 -3,0 z M 9,3 l 3,0 0,3 -3,0 z M 12,3 l 3,0 0,3 -3,0 z M 15,3 l 3,0 0,3 -3,0 z M 18,3 l 3,0 0,3 -3,0 z M 21,3 l 3,0 0,3 -3,0 z M 30,3 l 3,0 0,3 -3,0 z M 33,3 l 3,0 0,3 -3,0 z M 36,3 l 3,0 0,3 -3,0 z M 39,3 l 3,0 0,3 -3,0 z M 42,3 l 3,0 0,3 -3,0 z M 51,3 l 3,0 0,3 -3,0 z M 54,3 l 3,0 0,3 -3,0 z M 60,3 l 3,0 0,3 -3,0 z M 72,3 l 3,0 0,3 -3,0 z M 87,3 l 3,0 0,3 -3,0 z M 90,3 l 3,0 0,3 -3,0 z M 93,3 l 3,0 0,3 -3,0 z M 96,3 l 3,0 0,3 -3,0 z M 102,3 l 3,0 0,3 -3,0 z M 114,3 l 3,0 0,3 -3,0 z M 126,3 l 3,0 0,3 -3,0 z M 129,3 l 3,0 0,3 -3,0 z M 138,3 l 3,0 0,3 -3,0 z M 141,3 l 3,0 0,3 -3,0 z M 153,3 l 3,0 0,3 -3,0 z M 171,3 l 3,0 0,3 -3,0 z M 174,3 l 3,0 0,3 -3,0 z M 183,3 l 3,0 0,3 -3,0 z M 186,3 l 3,0 0,3 -3,0 z M 189,3 l 3,0 0,3 -3,0 z M 192,3 l 3,0 0,3 -3,0 z M 201,3 l 3,0 0,3 -3,0 z M 207,3 l 3,0 0,3 -3,0 z M 210,3 l 3,0 0,3 -3,0 z M 225,3 l 3,0 0,3 -3,0 z M 228,3 l 3,0 0,3 -3,0 z M 231,3 l 3,0 0,3 -3,0 z M 234,3 l 3,0 0,3 -3,0 z M 237,3 l 3,0 0,3 -3,0 z M 240,3 l 3,0 0,3 -3,0 z M 243,3 l 3,0 0,3 -3,0 z M 3,6 l 3,0 0,3 -3,0 z M 21,6 l 3,0 0,3 -3,0 z M 27,6 l 3,0 0,3 -3,0 z M 30,6 l 3,0 0,3 -3,0 z M 33,6 l 3,0 0,3 -3,0 z M 39,6 l 3,0 0,3 -3,0 z M 48,6 l 3,0 0,3 -3,0 z M 51,6 l 3,0 0,3 -3,0 z M 57,6 l 3,0 0,3 -3,0 z M 60,6 l 3,0 0,3 -3,0 z M 63,6 l 3,0 0,3 -3,0 z M 84,6 l 3,0 0,3 -3,0 z M 87,6 l 3,0 0,3 -3,0 z M 99,6 l 3,0 0,3 -3,0 z M 102,6 l 3,0 0,3 -3,0 z M 108,6 l 3,0 0,3 -3,0 z M 114,6 l 3,0 0,3 -3,0 z M 117,6 l 3,0 0,3 -3,0 z M 120,6 l 3,0 0,3 -3,0 z M 123,6 l 3,0 0,3 -3,0 z M 126,6 l 3,0 0,3 -3,0 z M 129,6 l 3,0 0,3 -3,0 z M 138,6 l 3,0 0,3 -3,0 z M 144,6 l 3,0 0,3 -3,0 z M 159,6 l 3,0 0,3 -3,0 z M 162,6 l 3,0 0,3 -3,0 z M 171,6 l 3,0 0,3 -3,0 z M 174,6 l 3,0 0,3 -3,0 z M 180,6 l 3,0 0,3 -3,0 z M 183,6 l 3,0 0,3 -3,0 z M 198,6 l 3,0 0,3 -3,0 z M 207,6 l 3,0 0,3 -3,0 z M 210,6 l 3,0 0,3 -3,0 z M 213,6 l 3,0 0,3 -3,0 z M 216,6 l 3,0 0,3 -3,0 z M 219,6 l 3,0 0,3 -3,0 z M 225,6 l 3,0 0,3 -3,0 z M 243,6 l 3,0 0,3 -3,0 z M 3,9 l 3,0 0,3 -3,0 z M 9,9 l 3,0 0,3 -3,0 z M 12,9 l 3,0 0,3 -3,0 z M 15,9 l 3,0 0,3 -3,0 z M 21,9 l 3,0 0,3 -3,0 z M 30,9 l 3,0 0,3 -3,0 z M 39,9 l 3,0 0,3 -3,0 z M 42,9 l 3,0 0,3 -3,0 z M 45,9 l 3,0 0,3 -3,0 z M 48,9 l 3,0 0,3 -3,0 z M 51,9 l 3,0 0,3 -3,0 z M 57,9 l 3,0 0,3 -3,0 z M 66,9 l 3,0 0,3 -3,0 z M 69,9 l 3,0 0,3 -3,0 z M 72,9 l 3,0 0,3 -3,0 z M 75,9 l 3,0 0,3 -3,0 z M 87,9 l 3,0 0,3 -3,0 z M 93,9 l 3,0 0,3 -3,0 z M 105,9 l 3,0 0,3 -3,0 z M 111,9 l 3,0 0,3 -3,0 z M 120,9 l 3,0 0,3 -3,0 z M 126,9 l 3,0 0,3 -3,0 z M 138,9 l 3,0 0,3 -3,0 z M 147,9 l 3,0 0,3 -3,0 z M 153,9 l 3,0 0,3 -3,0 z M 168,9 l 3,0 0,3 -3,0 z M 177,9 l 3,0 0,3 -3,0 z M 183,9 l 3,0 0,3 -3,0 z M 186,9 l 3,0 0,3 -3,0 z M 189,9 l 3,0 0,3 -3,0 z M 192,9 l 3,0 0,3 -3,0 z M 195,9 l 3,0 0,3 -3,0 z M 198,9 l 3,0 0,3 -3,0 z M 201,9 l 3,0 0,3 -3,0 z M 207,9 l 3,0 0,3 -3,0 z M 210,9 l 3,0 0,3 -3,0 z M 213,9 l 3,0 0,3 -3,0 z M 219,9 l 3,0 0,3 -3,0 z M 225,9 l 3,0 0,3 -3,0 z M 231,9 l 3,0 0,3 -3,0 z M 234,9 l 3,0 0,3 -3,0 z M 237,9 l 3,0 0,3 -3,0 z M 243,9 l 3,0 0,3 -3,0 z M 3,12 l 3,0 0,3 -3,0 z M 9,12 l 3,0 0,3 -3,0 z M 12,12 l 3,0 0,3 -3,0 z M 15,12 l 3,0 0,3 -3,0 z M 21,12 l 3,0 0,3 -3,0 z M 27,12 l 3,0 0,3 -3,0 z M 30,12 l 3,0 0,3 -3,0 z M 33,12 l 3,0 0,3 -3,0 z M 45,12 l 3,0 0,3 -3,0 z M 48,12 l 3,0 0,3 -3,0 z M 51,12 l 3,0 0,3 -3,0 z M 57,12 l 3,0 0,3 -3,0 z M 63,12 l 3,0 0,3 -3,0 z M 75,12 l 3,0 0,3 -3,0 z M 84,12 l 3,0 0,3 -3,0 z M 93,12 l 3,0 0,3 -3,0 z M 96,12 l 3,0 0,3 -3,0 z M 99,12 l 3,0 0,3 -3,0 z M 102,12 l 3,0 0,3 -3,0 z M 111,12 l 3,0 0,3 -3,0 z M 114,12 l 3,0 0,3 -3,0 z M 123,12 l 3,0 0,3 -3,0 z M 129,12 l 3,0 0,3 -3,0 z M 132,12 l 3,0 0,3 -3,0 z M 135,12 l 3,0 0,3 -3,0 z M 138,12 l 3,0 0,3 -3,0 z M 147,12 l 3,0 0,3 -3,0 z M 162,12 l 3,0 0,3 -3,0 z M 171,12 l 3,0 0,3 -3,0 z M 177,12 l 3,0 0,3 -3,0 z M 183,12 l 3,0 0,3 -3,0 z M 207,12 l 3,0 0,3 -3,0 z M 213,12 l 3,0 0,3 -3,0 z M 219,12 l 3,0 0,3 -3,0 z M 225,12 l 3,0 0,3 -3,0 z M 231,12 l 3,0 0,3 -3,0 z M 234,12 l 3,0 0,3 -3,0 z M 237,12 l 3,0 0,3 -3,0 z M 243,12 l 3,0 0,3 -3,0 z M 3,15 l 3,0 0,3 -3,0 z M 9,15 l 3,0 0,3 -3,0 z M 12,15 l 3,0 0,3 -3,0 z M 15,15 l 3,0 0,3 -3,0 z M 21,15 l 3,0 0,3 -3,0 z M 30,15 l 3,0 0,3 -3,0 z M 33,15 l 3,0 0,3 -3,0 z M 36,15 l 3,0 0,3 -3,0 z M 39,15 l 3,0 0,3 -3,0 z M 42,15 l 3,0 0,3 -3,0 z M 45,15 l 3,0 0,3 -3,0 z M 48,15 l 3,0 0,3 -3,0 z M 51,15 l 3,0 0,3 -3,0 z M 54,15 l 3,0 0,3 -3,0 z M 60,15 l 3,0 0,3 -3,0 z M 66,15 l 3,0 0,3 -3,0 z M 75,15 l 3,0 0,3 -3,0 z M 78,15 l 3,0 0,3 -3,0 z M 81,15 l 3,0 0,3 -3,0 z M 84,15 l 3,0 0,3 -3,0 z M 87,15 l 3,0 0,3 -3,0 z M 90,15 l 3,0 0,3 -3,0 z M 93,15 l 3,0 0,3 -3,0 z M 99,15 l 3,0 0,3 -3,0 z M 102,15 l 3,0 0,3 -3,0 z M 105,15 l 3,0 0,3 -3,0 z M 111,15 l 3,0 0,3 -3,0 z M 135,15 l 3,0 0,3 -3,0 z M 138,15 l 3,0 0,3 -3,0 z M 147,15 l 3,0 0,3 -3,0 z M 150,15 l 3,0 0,3 -3,0 z M 153,15 l 3,0 0,3 -3,0 z M 156,15 l 3,0 0,3 -3,0 z M 159,15 l 3,0 0,3 -3,0 z M 162,15 l 3,0 0,3 -3,0 z M 171,15 l 3,0 0,3 -3,0 z M 180,15 l 3,0 0,3 -3,0 z M 189,15 l 3,0 0,3 -3,0 z M 204,15 l 3,0 0,3 -3,0 z M 207,15 l 3,0 0,3 -3,0 z M 210,15 l 3,0 0,3 -3,0 z M 225,15 l 3,0 0,3 -3,0 z M 231,15 l 3,0 0,3 -3,0 z M 234,15 l 3,0 0,3 -3,0 z M 237,15 l 3,0 0,3 -3,0 z M 243,15 l 3,0 0,3 -3,0 z M 3,18 l 3,0 0,3 -3,0 z M 21,18 l 3,0 0,3 -3,0 z M 27,18 l 3,0 0,3 -3,0 z M 30,18 l 3,0 0,3 -3,0 z M 33,18 l 3,0 0,3 -3,0 z M 39,18 l 3,0 0,3 -3,0 z M 42,18 l 3,0 0,3 -3,0 z M 45,18 l 3,0 0,3 -3,0 z M 51,18 l 3,0 0,3 -3,0 z M 54,18 l 3,0 0,3 -3,0 z M 57,18 l 3,0 0,3 -3,0 z M 60,18 l 3,0 0,3 -3,0 z M 63,18 l 3,0 0,3 -3,0 z M 66,18 l 3,0 0,3 -3,0 z M 69,18 l 3,0 0,3 -3,0 z M 75,18 l 3,0 0,3 -3,0 z M 87,18 l 3,0 0,3 -3,0 z M 90,18 l 3,0 0,3 -3,0 z M 93,18 l 3,0 0,3 -3,0 z M 96,18 l 3,0 0,3 -3,0 z M 99,18 l 3,0 0,3 -3,0 z M 102,18 l 3,0 0,3 -3,0 z M 111,18 l 3,0 0,3 -3,0 z M 114,18 l 3,0 0,3 -3,0 z M 123,18 l 3,0 0,3 -3,0 z M 132,18 l 3,0 0,3 -3,0 z M 135,18 l 3,0 0,3 -3,0 z M 138,18 l 3,0 0,3 -3,0 z M 144,18 l 3,0 0,3 -3,0 z M 147,18 l 3,0 0,3 -3,0 z M 159,18 l 3,0 0,3 -3,0 z M 162,18 l 3,0 0,3 -3,0 z M 165,18 l 3,0 0,3 -3,0 z M 168,18 l 3,0 0,3 -3,0 z M 177,18 l 3,0 0,3 -3,0 z M 180,18 l 3,0 0,3 -3,0 z M 183,18 l 3,0 0,3 -3,0 z M 186,18 l 3,0 0,3 -3,0 z M 198,18 l 3,0 0,3 -3,0 z M 201,18 l 3,0 0,3 -3,0 z M 207,18 l 3,0 0,3 -3,0 z M 216,18 l 3,0 0,3 -3,0 z M 225,18 l 3,0 0,3 -3,0 z M 243,18 l 3,0 0,3 -3,0 z M 3,21 l 3,0 0,3 -3,0 z M 6,21 l 3,0 0,3 -3,0 z M 9,21 l 3,0 0,3 -3,0 z M 12,21 l 3,0 0,3 -3,0 z M 15,21 l 3,0 0,3 -3,0 z M 18,21 l 3,0 0,3 -3,0 z M 21,21 l 3,0 0,3 -3,0 z M 27,21 l 3,0 0,3 -3,0 z M 33,21 l 3,0 0,3 -3,0 z M 39,21 l 3,0 0,3 -3,0 z M 45,21 l 3,0 0,3 -3,0 z M 51,21 l 3,0 0,3 -3,0 z M 57,21 l 3,0 0,3 -3,0 z M 63,21 l 3,0 0,3 -3,0 z M 69,21 l 3,0 0,3 -3,0 z M 75,21 l 3,0 0,3 -3,0 z M 81,21 l 3,0 0,3 -3,0 z M 87,21 l 3,0 0,3 -3,0 z M 93,21 l 3,0 0,3 -3,0 z M 99,21 l 3,0 0,3 -3,0 z M 105,21 l 3,0 0,3 -3,0 z M 111,21 l 3,0 0,3 -3,0 z M 117,21 l 3,0 0,3 -3,0 z M 123,21 l 3,0 0,3 -3,0 z M 129,21 l 3,0 0,3 -3,0 z M 135,21 l 3,0 0,3 -3,0 z M 141,21 l 3,0 0,3 -3,0 z M 147,21 l 3,0 0,3 -3,0 z M 153,21 l 3,0 0,3 -3,0 z M 159,21 l 3,0 0,3 -3,0 z M 165,21 l 3,0 0,3 -3,0 z M 171,21 l 3,0 0,3 -3,0 z M 177,21 l 3,0 0,3 -3,0 z M 183,21 l 3,0 0,3 -3,0 z M 189,21 l 3,0 0,3 -3,0 z M 195,21 l 3,0 0,3 -3,0 z M 201,21 l 3,0 0,3 -3,0 z M 207,21 l 3,0 0,3 -3,0 z M 213,21 l 3,0 0,3 -3,0 z M 219,21 l 3,0 0,3 -3,0 z M 225,21 l 3,0 0,3 -3,0 z M 228,21 l 3,0 0,3 -3,0 z M 231,21 l 3,0 0,3 -3,0 z M 234,21 l 3,0 0,3 -3,0 z M 237,21 l 3,0 0,3 -3,0 z M 240,21 l 3,0 0,3 -3,0 z M 243,21 l 3,0 0,3 -3,0 z M 30,24 l 3,0 0,3 -3,0 z M 36,24 l 3,0 0,3 -3,0 z M 39,24 l 3,0 0,3 -3,0 z M 54,24 l 3,0 0,3 -3,0 z M 60,24 l 3,0 0,3 -3,0 z M 63,24 l 3,0 0,3 -3,0 z M 75,24 l 3,0 0,3 -3,0 z M 87,24 l 3,0 0,3 -3,0 z M 90,24 l 3,0 0,3 -3,0 z M 99,24 l 3,0 0,3 -3,0 z M 102,24 l 3,0 0,3 -3,0 z M 105,24 l 3,0 0,3 -3,0 z M 111,24 l 3,0 0,3 -3,0 z M 114,24 l 3,0 0,3 -3,0 z M 117,24 l 3,0 0,3 -3,0 z M 120,24 l 3,0 0,3 -3,0 z M 123,24 l 3,0 0,3 -3,0 z M 126,24 l 3,0 0,3 -3,0 z M 138,24 l 3,0 0,3 -3,0 z M 144,24 l 3,0 0,3 -3,0 z M 147,24 l 3,0 0,3 -3,0 z M 159,24 l 3,0 0,3 -3,0 z M 162,24 l 3,0 0,3 -3,0 z M 165,24 l 3,0 0,3 -3,0 z M 168,24 l 3,0 0,3 -3,0 z M 174,24 l 3,0 0,3 -3,0 z M 180,24 l 3,0 0,3 -3,0 z M 189,24 l 3,0 0,3 -3,0 z M 192,24 l 3,0 0,3 -3,0 z M 201,24 l 3,0 0,3 -3,0 z M 213,24 l 3,0 0,3 -3,0 z M 219,24 l 3,0 0,3 -3,0 z M 3,27 l 3,0 0,3 -3,0 z M 6,27 l 3,0 0,3 -3,0 z M 9,27 l 3,0 0,3 -3,0 z M 12,27 l 3,0 0,3 -3,0 z M 15,27 l 3,0 0,3 -3,0 z M 21,27 l 3,0 0,3 -3,0 z M 24,27 l 3,0 0,3 -3,0 z M 27,27 l 3,0 0,3 -3,0 z M 30,27 l 3,0 0,3 -3,0 z M 33,27 l 3,0 0,3 -3,0 z M 36,27 l 3,0 0,3 -3,0 z M 42,27 l 3,0 0,3 -3,0 z M 45,27 l 3,0 0,3 -3,0 z M 57,27 l 3,0 0,3 -3,0 z M 60,27 l 3,0 0,3 -3,0 z M 63,27 l 3,0 0,3 -3,0 z M 69,27 l 3,0 0,3 -3,0 z M 75,27 l 3,0 0,3 -3,0 z M 78,27 l 3,0 0,3 -3,0 z M 81,27 l 3,0 0,3 -3,0 z M 84,27 l 3,0 0,3 -3,0 z M 87,27 l 3,0 0,3 -3,0 z M 96,27 l 3,0 0,3 -3,0 z M 99,27 l 3,0 0,3 -3,0 z M 105,27 l 3,0 0,3 -3,0 z M 108,27 l 3,0 0,3 -3,0 z M 111,27 l 3,0 0,3 -3,0 z M 120,27 l 3,0 0,3 -3,0 z M 123,27 l 3,0 0,3 -3,0 z M 138,27 l 3,0 0,3 -3,0 z M 144,27 l 3,0 0,3 -3,0 z M 147,27 l 3,0 0,3 -3,0 z M 150,27 l 3,0 0,3 -3,0 z M 153,27 l 3,0 0,3 -3,0 z M 156,27 l 3,0 0,3 -3,0 z M 159,27 l 3,0 0,3 -3,0 z M 162,27 l 3,0 0,3 -3,0 z M 168,27 l 3,0 0,3 -3,0 z M 171,27 l 3,0 0,3 -3,0 z M 174,27 l 3,0 0,3 -3,0 z M 186,27 l 3,0 0,3 -3,0 z M 201,27 l 3,0 0,3 -3,0 z M 207,27 l 3,0 0,3 -3,0 z M 219,27 l 3,0 0,3 -3,0 z M 222,27 l 3,0 0,3 -3,0 z M 228,27 l 3,0 0,3 -3,0 z M 234,27 l 3,0 0,3 -3,0 z M 240,27 l 3,0 0,3 -3,0 z M 3,30 l 3,0 0,3 -3,0 z M 24,30 l 3,0 0,3 -3,0 z M 27,30 l 3,0 0,3 -3,0 z M 39,30 l 3,0 0,3 -3,0 z M 57,30 l 3,0 0,3 -3,0 z M 60,30 l 3,0 0,3 -3,0 z M 66,30 l 3,0 0,3 -3,0 z M 69,30 l 3,0 0,3 -3,0 z M 72,30 l 3,0 0,3 -3,0 z M 96,30 l 3,0 0,3 -3,0 z M 102,30 l 3,0 0,3 -3,0 z M 105,30 l 3,0 0,3 -3,0 z M 114,30 l 3,0 0,3 -3,0 z M 120,30 l 3,0 0,3 -3,0 z M 126,30 l 3,0 0,3 -3,0 z M 129,30 l 3,0 0,3 -3,0 z M 138,30 l 3,0 0,3 -3,0 z M 150,30 l 3,0 0,3 -3,0 z M 153,30 l 3,0 0,3 -3,0 z M 165,30 l 3,0 0,3 -3,0 z M 168,30 l 3,0 0,3 -3,0 z M 174,30 l 3,0 0,3 -3,0 z M 180,30 l 3,0 0,3 -3,0 z M 189,30 l 3,0 0,3 -3,0 z M 192,30 l 3,0 0,3 -3,0 z M 195,30 l 3,0 0,3 -3,0 z M 198,30 l 3,0 0,3 -3,0 z M 201,30 l 3,0 0,3 -3,0 z M 207,30 l 3,0 0,3 -3,0 z M 213,30 l 3,0 0,3 -3,0 z M 216,30 l 3,0 0,3 -3,0 z M 222,30 l 3,0 0,3 -3,0 z M 228,30 l 3,0 0,3 -3,0 z M 231,30 l 3,0 0,3 -3,0 z M 21,33 l 3,0 0,3 -3,0 z M 24,33 l 3,0 0,3 -3,0 z M 27,33 l 3,0 0,3 -3,0 z M 30,33 l 3,0 0,3 -3,0 z M 33,33 l 3,0 0,3 -3,0 z M 36,33 l 3,0 0,3 -3,0 z M 39,33 l 3,0 0,3 -3,0 z M 42,33 l 3,0 0,3 -3,0 z M 48,33 l 3,0 0,3 -3,0 z M 54,33 l 3,0 0,3 -3,0 z M 57,33 l 3,0 0,3 -3,0 z M 60,33 l 3,0 0,3 -3,0 z M 69,33 l 3,0 0,3 -3,0 z M 75,33 l 3,0 0,3 -3,0 z M 87,33 l 3,0 0,3 -3,0 z M 93,33 l 3,0 0,3 -3,0 z M 99,33 l 3,0 0,3 -3,0 z M 102,33 l 3,0 0,3 -3,0 z M 105,33 l 3,0 0,3 -3,0 z M 108,33 l 3,0 0,3 -3,0 z M 111,33 l 3,0 0,3 -3,0 z M 114,33 l 3,0 0,3 -3,0 z M 117,33 l 3,0 0,3 -3,0 z M 129,33 l 3,0 0,3 -3,0 z M 138,33 l 3,0 0,3 -3,0 z M 147,33 l 3,0 0,3 -3,0 z M 150,33 l 3,0 0,3 -3,0 z M 156,33 l 3,0 0,3 -3,0 z M 162,33 l 3,0 0,3 -3,0 z M 168,33 l 3,0 0,3 -3,0 z M 174,33 l 3,0 0,3 -3,0 z M 180,33 l 3,0 0,3 -3,0 z M 186,33 l 3,0 0,3 -3,0 z M 189,33 l 3,0 0,3 -3,0 z M 198,33 l 3,0 0,3 -3,0 z M 204,33 l 3,0 0,3 -3,0 z M 210,33 l 3,0 0,3 -3,0 z M 213,33 l 3,0 0,3 -3,0 z M 219,33 l 3,0 0,3 -3,0 z M 222,33 l 3,0 0,3 -3,0 z M 225,33 l 3,0 0,3 -3,0 z M 228,33 l 3,0 0,3 -3,0 z M 231,33 l 3,0 0,3 -3,0 z M 237,33 l 3,0 0,3 -3,0 z M 3,36 l 3,0 0,3 -3,0 z M 15,36 l 3,0 0,3 -3,0 z M 18,36 l 3,0 0,3 -3,0 z M 30,36 l 3,0 0,3 -3,0 z M 33,36 l 3,0 0,3 -3,0 z M 39,36 l 3,0 0,3 -3,0 z M 42,36 l 3,0 0,3 -3,0 z M 45,36 l 3,0 0,3 -3,0 z M 48,36 l 3,0 0,3 -3,0 z M 51,36 l 3,0 0,3 -3,0 z M 57,36 l 3,0 0,3 -3,0 z M 63,36 l 3,0 0,3 -3,0 z M 69,36 l 3,0 0,3 -3,0 z M 75,36 l 3,0 0,3 -3,0 z M 78,36 l 3,0 0,3 -3,0 z M 81,36 l 3,0 0,3 -3,0 z M 84,36 l 3,0 0,3 -3,0 z M 93,36 l 3,0 0,3 -3,0 z M 105,36 l 3,0 0,3 -3,0 z M 108,36 l 3,0 0,3 -3,0 z M 111,36 l 3,0 0,3 -3,0 z M 117,36 l 3,0 0,3 -3,0 z M 120,36 l 3,0 0,3 -3,0 z M 126,36 l 3,0 0,3 -3,0 z M 129,36 l 3,0 0,3 -3,0 z M 132,36 l 3,0 0,3 -3,0 z M 135,36 l 3,0 0,3 -3,0 z M 141,36 l 3,0 0,3 -3,0 z M 153,36 l 3,0 0,3 -3,0 z M 156,36 l 3,0 0,3 -3,0 z M 162,36 l 3,0 0,3 -3,0 z M 165,36 l 3,0 0,3 -3,0 z M 171,36 l 3,0 0,3 -3,0 z M 174,36 l 3,0 0,3 -3,0 z M 186,36 l 3,0 0,3 -3,0 z M 192,36 l 3,0 0,3 -3,0 z M 198,36 l 3,0 0,3 -3,0 z M 207,36 l 3,0 0,3 -3,0 z M 210,36 l 3,0 0,3 -3,0 z M 213,36 l 3,0 0,3 -3,0 z M 216,36 l 3,0 0,3 -3,0 z M 219,36 l 3,0 0,3 -3,0 z M 222,36 l 3,0 0,3 -3,0 z M 228,36 l 3,0 0,3 -3,0 z M 234,36 l 3,0 0,3 -3,0 z M 237,36 l 3,0 0,3 -3,0 z M 3,39 l 3,0 0,3 -3,0 z M 6,39 l 3,0 0,3 -3,0 z M 9,39 l 3,0 0,3 -3,0 z M 12,39 l 3,0 0,3 -3,0 z M 15,39 l 3,0 0,3 -3,0 z M 21,39 l 3,0 0,3 -3,0 z M 33,39 l 3,0 0,3 -3,0 z M 45,39 l 3,0 0,3 -3,0 z M 54,39 l 3,0 0,3 -3,0 z M 57,39 l 3,0 0,3 -3,0 z M 63,39 l 3,0 0,3 -3,0 z M 75,39 l 3,0 0,3 -3,0 z M 78,39 l 3,0 0,3 -3,0 z M 93,39 l 3,0 0,3 -3,0 z M 102,39 l 3,0 0,3 -3,0 z M 105,39 l 3,0 0,3 -3,0 z M 111,39 l 3,0 0,3 -3,0 z M 114,39 l 3,0 0,3 -3,0 z M 117,39 l 3,0 0,3 -3,0 z M 123,39 l 3,0 0,3 -3,0 z M 126,39 l 3,0 0,3 -3,0 z M 129,39 l 3,0 0,3 -3,0 z M 138,39 l 3,0 0,3 -3,0 z M 141,39 l 3,0 0,3 -3,0 z M 147,39 l 3,0 0,3 -3,0 z M 153,39 l 3,0 0,3 -3,0 z M 159,39 l 3,0 0,3 -3,0 z M 162,39 l 3,0 0,3 -3,0 z M 165,39 l 3,0 0,3 -3,0 z M 183,39 l 3,0 0,3 -3,0 z M 189,39 l 3,0 0,3 -3,0 z M 195,39 l 3,0 0,3 -3,0 z M 198,39 l 3,0 0,3 -3,0 z M 201,39 l 3,0 0,3 -3,0 z M 210,39 l 3,0 0,3 -3,0 z M 213,39 l 3,0 0,3 -3,0 z M 219,39 l 3,0 0,3 -3,0 z M 225,39 l 3,0 0,3 -3,0 z M 234,39 l 3,0 0,3 -3,0 z M 3,42 l 3,0 0,3 -3,0 z M 9,42 l 3,0 0,3 -3,0 z M 12,42 l 3,0 0,3 -3,0 z M 15,42 l 3,0 0,3 -3,0 z M 42,42 l 3,0 0,3 -3,0 z M 45,42 l 3,0 0,3 -3,0 z M 48,42 l 3,0 0,3 -3,0 z M 66,42 l 3,0 0,3 -3,0 z M 69,42 l 3,0 0,3 -3,0 z M 78,42 l 3,0 0,3 -3,0 z M 84,42 l 3,0 0,3 -3,0 z M 87,42 l 3,0 0,3 -3,0 z M 93,42 l 3,0 0,3 -3,0 z M 96,42 l 3,0 0,3 -3,0 z M 105,42 l 3,0 0,3 -3,0 z M 108,42 l 3,0 0,3 -3,0 z M 111,42 l 3,0 0,3 -3,0 z M 114,42 l 3,0 0,3 -3,0 z M 117,42 l 3,0 0,3 -3,0 z M 120,42 l 3,0 0,3 -3,0 z M 126,42 l 3,0 0,3 -3,0 z M 129,42 l 3,0 0,3 -3,0 z M 141,42 l 3,0 0,3 -3,0 z M 144,42 l 3,0 0,3 -3,0 z M 147,42 l 3,0 0,3 -3,0 z M 150,42 l 3,0 0,3 -3,0 z M 165,42 l 3,0 0,3 -3,0 z M 168,42 l 3,0 0,3 -3,0 z M 174,42 l 3,0 0,3 -3,0 z M 177,42 l 3,0 0,3 -3,0 z M 186,42 l 3,0 0,3 -3,0 z M 192,42 l 3,0 0,3 -3,0 z M 195,42 l 3,0 0,3 -3,0 z M 201,42 l 3,0 0,3 -3,0 z M 204,42 l 3,0 0,3 -3,0 z M 210,42 l 3,0 0,3 -3,0 z M 213,42 l 3,0 0,3 -3,0 z M 216,42 l 3,0 0,3 -3,0 z M 219,42 l 3,0 0,3 -3,0 z M 228,42 l 3,0 0,3 -3,0 z M 231,42 l 3,0 0,3 -3,0 z M 234,42 l 3,0 0,3 -3,0 z M 3,45 l 3,0 0,3 -3,0 z M 9,45 l 3,0 0,3 -3,0 z M 15,45 l 3,0 0,3 -3,0 z M 21,45 l 3,0 0,3 -3,0 z M 24,45 l 3,0 0,3 -3,0 z M 27,45 l 3,0 0,3 -3,0 z M 33,45 l 3,0 0,3 -3,0 z M 39,45 l 3,0 0,3 -3,0 z M 42,45 l 3,0 0,3 -3,0 z M 48,45 l 3,0 0,3 -3,0 z M 54,45 l 3,0 0,3 -3,0 z M 75,45 l 3,0 0,3 -3,0 z M 78,45 l 3,0 0,3 -3,0 z M 93,45 l 3,0 0,3 -3,0 z M 96,45 l 3,0 0,3 -3,0 z M 99,45 l 3,0 0,3 -3,0 z M 102,45 l 3,0 0,3 -3,0 z M 111,45 l 3,0 0,3 -3,0 z M 117,45 l 3,0 0,3 -3,0 z M 126,45 l 3,0 0,3 -3,0 z M 138,45 l 3,0 0,3 -3,0 z M 147,45 l 3,0 0,3 -3,0 z M 150,45 l 3,0 0,3 -3,0 z M 162,45 l 3,0 0,3 -3,0 z M 168,45 l 3,0 0,3 -3,0 z M 177,45 l 3,0 0,3 -3,0 z M 183,45 l 3,0 0,3 -3,0 z M 186,45 l 3,0 0,3 -3,0 z M 198,45 l 3,0 0,3 -3,0 z M 204,45 l 3,0 0,3 -3,0 z M 207,45 l 3,0 0,3 -3,0 z M 216,45 l 3,0 0,3 -3,0 z M 228,45 l 3,0 0,3 -3,0 z M 231,45 l 3,0 0,3 -3,0 z M 237,45 l 3,0 0,3 -3,0 z M 243,45 l 3,0 0,3 -3,0 z M 3,48 l 3,0 0,3 -3,0 z M 6,48 l 3,0 0,3 -3,0 z M 9,48 l 3,0 0,3 -3,0 z M 12,48 l 3,0 0,3 -3,0 z M 18,48 l 3,0 0,3 -3,0 z M 30,48 l 3,0 0,3 -3,0 z M 33,48 l 3,0 0,3 -3,0 z M 36,48 l 3,0 0,3 -3,0 z M 42,48 l 3,0 0,3 -3,0 z M 51,48 l 3,0 0,3 -3,0 z M 57,48 l 3,0 0,3 -3,0 z M 60,48 l 3,0 0,3 -3,0 z M 87,48 l 3,0 0,3 -3,0 z M 102,48 l 3,0 0,3 -3,0 z M 114,48 l 3,0 0,3 -3,0 z M 120,48 l 3,0 0,3 -3,0 z M 123,48 l 3,0 0,3 -3,0 z M 129,48 l 3,0 0,3 -3,0 z M 141,48 l 3,0 0,3 -3,0 z M 144,48 l 3,0 0,3 -3,0 z M 147,48 l 3,0 0,3 -3,0 z M 153,48 l 3,0 0,3 -3,0 z M 165,48 l 3,0 0,3 -3,0 z M 171,48 l 3,0 0,3 -3,0 z M 174,48 l 3,0 0,3 -3,0 z M 183,48 l 3,0 0,3 -3,0 z M 195,48 l 3,0 0,3 -3,0 z M 198,48 l 3,0 0,3 -3,0 z M 201,48 l 3,0 0,3 -3,0 z M 204,48 l 3,0 0,3 -3,0 z M 210,48 l 3,0 0,3 -3,0 z M 213,48 l 3,0 0,3 -3,0 z M 228,48 l 3,0 0,3 -3,0 z M 234,48 l 3,0 0,3 -3,0 z M 240,48 l 3,0 0,3 -3,0 z M 243,48 l 3,0 0,3 -3,0 z M 3,51 l 3,0 0,3 -3,0 z M 6,51 l 3,0 0,3 -3,0 z M 9,51 l 3,0 0,3 -3,0 z M 12,51 l 3,0 0,3 -3,0 z M 15,51 l 3,0 0,3 -3,0 z M 18,51 l 3,0 0,3 -3,0 z M 21,51 l 3,0 0,3 -3,0 z M 24,51 l 3,0 0,3 -3,0 z M 27,51 l 3,0 0,3 -3,0 z M 45,51 l 3,0 0,3 -3,0 z M 48,51 l 3,0 0,3 -3,0 z M 51,51 l 3,0 0,3 -3,0 z M 60,51 l 3,0 0,3 -3,0 z M 63,51 l 3,0 0,3 -3,0 z M 75,51 l 3,0 0,3 -3,0 z M 81,51 l 3,0 0,3 -3,0 z M 84,51 l 3,0 0,3 -3,0 z M 90,51 l 3,0 0,3 -3,0 z M 96,51 l 3,0 0,3 -3,0 z M 99,51 l 3,0 0,3 -3,0 z M 102,51 l 3,0 0,3 -3,0 z M 105,51 l 3,0 0,3 -3,0 z M 111,51 l 3,0 0,3 -3,0 z M 117,51 l 3,0 0,3 -3,0 z M 126,51 l 3,0 0,3 -3,0 z M 129,51 l 3,0 0,3 -3,0 z M 132,51 l 3,0 0,3 -3,0 z M 141,51 l 3,0 0,3 -3,0 z M 147,51 l 3,0 0,3 -3,0 z M 150,51 l 3,0 0,3 -3,0 z M 156,51 l 3,0 0,3 -3,0 z M 159,51 l 3,0 0,3 -3,0 z M 165,51 l 3,0 0,3 -3,0 z M 168,51 l 3,0 0,3 -3,0 z M 171,51 l 3,0 0,3 -3,0 z M 183,51 l 3,0 0,3 -3,0 z M 192,51 l 3,0 0,3 -3,0 z M 198,51 l 3,0 0,3 -3,0 z M 201,51 l 3,0 0,3 -3,0 z M 204,51 l 3,0 0,3 -3,0 z M 207,51 l 3,0 0,3 -3,0 z M 216,51 l 3,0 0,3 -3,0 z M 225,51 l 3,0 0,3 -3,0 z M 228,51 l 3,0 0,3 -3,0 z M 231,51 l 3,0 0,3 -3,0 z M 243,51 l 3,0 0,3 -3,0 z M 3,54 l 3,0 0,3 -3,0 z M 6,54 l 3,0 0,3 -3,0 z M 9,54 l 3,0 0,3 -3,0 z M 15,54 l 3,0 0,3 -3,0 z M 24,54 l 3,0 0,3 -3,0 z M 30,54 l 3,0 0,3 -3,0 z M 39,54 l 3,0 0,3 -3,0 z M 42,54 l 3,0 0,3 -3,0 z M 45,54 l 3,0 0,3 -3,0 z M 48,54 l 3,0 0,3 -3,0 z M 51,54 l 3,0 0,3 -3,0 z M 57,54 l 3,0 0,3 -3,0 z M 60,54 l 3,0 0,3 -3,0 z M 63,54 l 3,0 0,3 -3,0 z M 81,54 l 3,0 0,3 -3,0 z M 90,54 l 3,0 0,3 -3,0 z M 93,54 l 3,0 0,3 -3,0 z M 96,54 l 3,0 0,3 -3,0 z M 102,54 l 3,0 0,3 -3,0 z M 108,54 l 3,0 0,3 -3,0 z M 114,54 l 3,0 0,3 -3,0 z M 129,54 l 3,0 0,3 -3,0 z M 144,54 l 3,0 0,3 -3,0 z M 147,54 l 3,0 0,3 -3,0 z M 159,54 l 3,0 0,3 -3,0 z M 162,54 l 3,0 0,3 -3,0 z M 165,54 l 3,0 0,3 -3,0 z M 171,54 l 3,0 0,3 -3,0 z M 174,54 l 3,0 0,3 -3,0 z M 183,54 l 3,0 0,3 -3,0 z M 195,54 l 3,0 0,3 -3,0 z M 201,54 l 3,0 0,3 -3,0 z M 210,54 l 3,0 0,3 -3,0 z M 213,54 l 3,0 0,3 -3,0 z M 219,54 l 3,0 0,3 -3,0 z M 225,54 l 3,0 0,3 -3,0 z M 228,54 l 3,0 0,3 -3,0 z M 231,54 l 3,0 0,3 -3,0 z M 234,54 l 3,0 0,3 -3,0 z M 3,57 l 3,0 0,3 -3,0 z M 6,57 l 3,0 0,3 -3,0 z M 9,57 l 3,0 0,3 -3,0 z M 12,57 l 3,0 0,3 -3,0 z M 18,57 l 3,0 0,3 -3,0 z M 21,57 l 3,0 0,3 -3,0 z M 48,57 l 3,0 0,3 -3,0 z M 51,57 l 3,0 0,3 -3,0 z M 57,57 l 3,0 0,3 -3,0 z M 60,57 l 3,0 0,3 -3,0 z M 66,57 l 3,0 0,3 -3,0 z M 69,57 l 3,0 0,3 -3,0 z M 72,57 l 3,0 0,3 -3,0 z M 81,57 l 3,0 0,3 -3,0 z M 84,57 l 3,0 0,3 -3,0 z M 87,57 l 3,0 0,3 -3,0 z M 93,57 l 3,0 0,3 -3,0 z M 96,57 l 3,0 0,3 -3,0 z M 99,57 l 3,0 0,3 -3,0 z M 102,57 l 3,0 0,3 -3,0 z M 105,57 l 3,0 0,3 -3,0 z M 111,57 l 3,0 0,3 -3,0 z M 123,57 l 3,0 0,3 -3,0 z M 132,57 l 3,0 0,3 -3,0 z M 135,57 l 3,0 0,3 -3,0 z M 138,57 l 3,0 0,3 -3,0 z M 141,57 l 3,0 0,3 -3,0 z M 150,57 l 3,0 0,3 -3,0 z M 156,57 l 3,0 0,3 -3,0 z M 159,57 l 3,0 0,3 -3,0 z M 162,57 l 3,0 0,3 -3,0 z M 165,57 l 3,0 0,3 -3,0 z M 177,57 l 3,0 0,3 -3,0 z M 189,57 l 3,0 0,3 -3,0 z M 204,57 l 3,0 0,3 -3,0 z M 213,57 l 3,0 0,3 -3,0 z M 216,57 l 3,0 0,3 -3,0 z M 222,57 l 3,0 0,3 -3,0 z M 234,57 l 3,0 0,3 -3,0 z M 237,57 l 3,0 0,3 -3,0 z M 39,60 l 3,0 0,3 -3,0 z M 42,60 l 3,0 0,3 -3,0 z M 48,60 l 3,0 0,3 -3,0 z M 51,60 l 3,0 0,3 -3,0 z M 57,60 l 3,0 0,3 -3,0 z M 60,60 l 3,0 0,3 -3,0 z M 87,60 l 3,0 0,3 -3,0 z M 93,60 l 3,0 0,3 -3,0 z M 96,60 l 3,0 0,3 -3,0 z M 102,60 l 3,0 0,3 -3,0 z M 108,60 l 3,0 0,3 -3,0 z M 120,60 l 3,0 0,3 -3,0 z M 129,60 l 3,0 0,3 -3,0 z M 138,60 l 3,0 0,3 -3,0 z M 141,60 l 3,0 0,3 -3,0 z M 144,60 l 3,0 0,3 -3,0 z M 150,60 l 3,0 0,3 -3,0 z M 153,60 l 3,0 0,3 -3,0 z M 165,60 l 3,0 0,3 -3,0 z M 168,60 l 3,0 0,3 -3,0 z M 177,60 l 3,0 0,3 -3,0 z M 180,60 l 3,0 0,3 -3,0 z M 183,60 l 3,0 0,3 -3,0 z M 210,60 l 3,0 0,3 -3,0 z M 216,60 l 3,0 0,3 -3,0 z M 222,60 l 3,0 0,3 -3,0 z M 231,60 l 3,0 0,3 -3,0 z M 3,63 l 3,0 0,3 -3,0 z M 12,63 l 3,0 0,3 -3,0 z M 15,63 l 3,0 0,3 -3,0 z M 18,63 l 3,0 0,3 -3,0 z M 21,63 l 3,0 0,3 -3,0 z M 27,63 l 3,0 0,3 -3,0 z M 33,63 l 3,0 0,3 -3,0 z M 39,63 l 3,0 0,3 -3,0 z M 42,63 l 3,0 0,3 -3,0 z M 51,63 l 3,0 0,3 -3,0 z M 66,63 l 3,0 0,3 -3,0 z M 69,63 l 3,0 0,3 -3,0 z M 72,63 l 3,0 0,3 -3,0 z M 75,63 l 3,0 0,3 -3,0 z M 78,63 l 3,0 0,3 -3,0 z M 90,63 l 3,0 0,3 -3,0 z M 93,63 l 3,0 0,3 -3,0 z M 96,63 l 3,0 0,3 -3,0 z M 99,63 l 3,0 0,3 -3,0 z M 105,63 l 3,0 0,3 -3,0 z M 108,63 l 3,0 0,3 -3,0 z M 111,63 l 3,0 0,3 -3,0 z M 114,63 l 3,0 0,3 -3,0 z M 123,63 l 3,0 0,3 -3,0 z M 126,63 l 3,0 0,3 -3,0 z M 129,63 l 3,0 0,3 -3,0 z M 135,63 l 3,0 0,3 -3,0 z M 141,63 l 3,0 0,3 -3,0 z M 144,63 l 3,0 0,3 -3,0 z M 165,63 l 3,0 0,3 -3,0 z M 168,63 l 3,0 0,3 -3,0 z M 180,63 l 3,0 0,3 -3,0 z M 183,63 l 3,0 0,3 -3,0 z M 186,63 l 3,0 0,3 -3,0 z M 204,63 l 3,0 0,3 -3,0 z M 207,63 l 3,0 0,3 -3,0 z M 210,63 l 3,0 0,3 -3,0 z M 213,63 l 3,0 0,3 -3,0 z M 216,63 l 3,0 0,3 -3,0 z M 222,63 l 3,0 0,3 -3,0 z M 228,63 l 3,0 0,3 -3,0 z M 234,63 l 3,0 0,3 -3,0 z M 237,63 l 3,0 0,3 -3,0 z M 240,63 l 3,0 0,3 -3,0 z M 6,66 l 3,0 0,3 -3,0 z M 15,66 l 3,0 0,3 -3,0 z M 18,66 l 3,0 0,3 -3,0 z M 30,66 l 3,0 0,3 -3,0 z M 33,66 l 3,0 0,3 -3,0 z M 36,66 l 3,0 0,3 -3,0 z M 42,66 l 3,0 0,3 -3,0 z M 57,66 l 3,0 0,3 -3,0 z M 66,66 l 3,0 0,3 -3,0 z M 69,66 l 3,0 0,3 -3,0 z M 72,66 l 3,0 0,3 -3,0 z M 78,66 l 3,0 0,3 -3,0 z M 93,66 l 3,0 0,3 -3,0 z M 96,66 l 3,0 0,3 -3,0 z M 102,66 l 3,0 0,3 -3,0 z M 105,66 l 3,0 0,3 -3,0 z M 108,66 l 3,0 0,3 -3,0 z M 111,66 l 3,0 0,3 -3,0 z M 117,66 l 3,0 0,3 -3,0 z M 120,66 l 3,0 0,3 -3,0 z M 123,66 l 3,0 0,3 -3,0 z M 129,66 l 3,0 0,3 -3,0 z M 141,66 l 3,0 0,3 -3,0 z M 144,66 l 3,0 0,3 -3,0 z M 147,66 l 3,0 0,3 -3,0 z M 153,66 l 3,0 0,3 -3,0 z M 159,66 l 3,0 0,3 -3,0 z M 171,66 l 3,0 0,3 -3,0 z M 177,66 l 3,0 0,3 -3,0 z M 183,66 l 3,0 0,3 -3,0 z M 186,66 l 3,0 0,3 -3,0 z M 192,66 l 3,0 0,3 -3,0 z M 195,66 l 3,0 0,3 -3,0 z M 198,66 l 3,0 0,3 -3,0 z M 207,66 l 3,0 0,3 -3,0 z M 216,66 l 3,0 0,3 -3,0 z M 222,66 l 3,0 0,3 -3,0 z M 228,66 l 3,0 0,3 -3,0 z M 237,66 l 3,0 0,3 -3,0 z M 18,69 l 3,0 0,3 -3,0 z M 21,69 l 3,0 0,3 -3,0 z M 27,69 l 3,0 0,3 -3,0 z M 30,69 l 3,0 0,3 -3,0 z M 36,69 l 3,0 0,3 -3,0 z M 45,69 l 3,0 0,3 -3,0 z M 48,69 l 3,0 0,3 -3,0 z M 51,69 l 3,0 0,3 -3,0 z M 69,69 l 3,0 0,3 -3,0 z M 81,69 l 3,0 0,3 -3,0 z M 84,69 l 3,0 0,3 -3,0 z M 90,69 l 3,0 0,3 -3,0 z M 93,69 l 3,0 0,3 -3,0 z M 96,69 l 3,0 0,3 -3,0 z M 102,69 l 3,0 0,3 -3,0 z M 105,69 l 3,0 0,3 -3,0 z M 108,69 l 3,0 0,3 -3,0 z M 111,69 l 3,0 0,3 -3,0 z M 123,69 l 3,0 0,3 -3,0 z M 126,69 l 3,0 0,3 -3,0 z M 129,69 l 3,0 0,3 -3,0 z M 132,69 l 3,0 0,3 -3,0 z M 135,69 l 3,0 0,3 -3,0 z M 138,69 l 3,0 0,3 -3,0 z M 141,69 l 3,0 0,3 -3,0 z M 144,69 l 3,0 0,3 -3,0 z M 156,69 l 3,0 0,3 -3,0 z M 159,69 l 3,0 0,3 -3,0 z M 162,69 l 3,0 0,3 -3,0 z M 165,69 l 3,0 0,3 -3,0 z M 168,69 l 3,0 0,3 -3,0 z M 171,69 l 3,0 0,3 -3,0 z M 177,69 l 3,0 0,3 -3,0 z M 189,69 l 3,0 0,3 -3,0 z M 198,69 l 3,0 0,3 -3,0 z M 204,69 l 3,0 0,3 -3,0 z M 210,69 l 3,0 0,3 -3,0 z M 213,69 l 3,0 0,3 -3,0 z M 222,69 l 3,0 0,3 -3,0 z M 225,69 l 3,0 0,3 -3,0 z M 234,69 l 3,0 0,3 -3,0 z M 237,69 l 3,0 0,3 -3,0 z M 240,69 l 3,0 0,3 -3,0 z M 243,69 l 3,0 0,3 -3,0 z M 15,72 l 3,0 0,3 -3,0 z M 24,72 l 3,0 0,3 -3,0 z M 33,72 l 3,0 0,3 -3,0 z M 45,72 l 3,0 0,3 -3,0 z M 51,72 l 3,0 0,3 -3,0 z M 57,72 l 3,0 0,3 -3,0 z M 66,72 l 3,0 0,3 -3,0 z M 69,72 l 3,0 0,3 -3,0 z M 72,72 l 3,0 0,3 -3,0 z M 78,72 l 3,0 0,3 -3,0 z M 81,72 l 3,0 0,3 -3,0 z M 84,72 l 3,0 0,3 -3,0 z M 87,72 l 3,0 0,3 -3,0 z M 90,72 l 3,0 0,3 -3,0 z M 93,72 l 3,0 0,3 -3,0 z M 99,72 l 3,0 0,3 -3,0 z M 120,72 l 3,0 0,3 -3,0 z M 123,72 l 3,0 0,3 -3,0 z M 126,72 l 3,0 0,3 -3,0 z M 132,72 l 3,0 0,3 -3,0 z M 135,72 l 3,0 0,3 -3,0 z M 150,72 l 3,0 0,3 -3,0 z M 153,72 l 3,0 0,3 -3,0 z M 159,72 l 3,0 0,3 -3,0 z M 168,72 l 3,0 0,3 -3,0 z M 171,72 l 3,0 0,3 -3,0 z M 189,72 l 3,0 0,3 -3,0 z M 192,72 l 3,0 0,3 -3,0 z M 204,72 l 3,0 0,3 -3,0 z M 207,72 l 3,0 0,3 -3,0 z M 222,72 l 3,0 0,3 -3,0 z M 225,72 l 3,0 0,3 -3,0 z M 228,72 l 3,0 0,3 -3,0 z M 240,72 l 3,0 0,3 -3,0 z M 3,75 l 3,0 0,3 -3,0 z M 12,75 l 3,0 0,3 -3,0 z M 15,75 l 3,0 0,3 -3,0 z M 18,75 l 3,0 0,3 -3,0 z M 21,75 l 3,0 0,3 -3,0 z M 24,75 l 3,0 0,3 -3,0 z M 27,75 l 3,0 0,3 -3,0 z M 30,75 l 3,0 0,3 -3,0 z M 33,75 l 3,0 0,3 -3,0 z M 36,75 l 3,0 0,3 -3,0 z M 42,75 l 3,0 0,3 -3,0 z M 51,75 l 3,0 0,3 -3,0 z M 54,75 l 3,0 0,3 -3,0 z M 57,75 l 3,0 0,3 -3,0 z M 60,75 l 3,0 0,3 -3,0 z M 72,75 l 3,0 0,3 -3,0 z M 75,75 l 3,0 0,3 -3,0 z M 78,75 l 3,0 0,3 -3,0 z M 81,75 l 3,0 0,3 -3,0 z M 84,75 l 3,0 0,3 -3,0 z M 87,75 l 3,0 0,3 -3,0 z M 93,75 l 3,0 0,3 -3,0 z M 96,75 l 3,0 0,3 -3,0 z M 102,75 l 3,0 0,3 -3,0 z M 114,75 l 3,0 0,3 -3,0 z M 117,75 l 3,0 0,3 -3,0 z M 120,75 l 3,0 0,3 -3,0 z M 126,75 l 3,0 0,3 -3,0 z M 132,75 l 3,0 0,3 -3,0 z M 147,75 l 3,0 0,3 -3,0 z M 150,75 l 3,0 0,3 -3,0 z M 153,75 l 3,0 0,3 -3,0 z M 156,75 l 3,0 0,3 -3,0 z M 159,75 l 3,0 0,3 -3,0 z M 165,75 l 3,0 0,3 -3,0 z M 171,75 l 3,0 0,3 -3,0 z M 177,75 l 3,0 0,3 -3,0 z M 186,75 l 3,0 0,3 -3,0 z M 189,75 l 3,0 0,3 -3,0 z M 192,75 l 3,0 0,3 -3,0 z M 195,75 l 3,0 0,3 -3,0 z M 210,75 l 3,0 0,3 -3,0 z M 219,75 l 3,0 0,3 -3,0 z M 222,75 l 3,0 0,3 -3,0 z M 225,75 l 3,0 0,3 -3,0 z M 228,75 l 3,0 0,3 -3,0 z M 231,75 l 3,0 0,3 -3,0 z M 234,75 l 3,0 0,3 -3,0 z M 240,75 l 3,0 0,3 -3,0 z M 3,78 l 3,0 0,3 -3,0 z M 15,78 l 3,0 0,3 -3,0 z M 27,78 l 3,0 0,3 -3,0 z M 33,78 l 3,0 0,3 -3,0 z M 42,78 l 3,0 0,3 -3,0 z M 45,78 l 3,0 0,3 -3,0 z M 60,78 l 3,0 0,3 -3,0 z M 75,78 l 3,0 0,3 -3,0 z M 87,78 l 3,0 0,3 -3,0 z M 93,78 l 3,0 0,3 -3,0 z M 96,78 l 3,0 0,3 -3,0 z M 99,78 l 3,0 0,3 -3,0 z M 102,78 l 3,0 0,3 -3,0 z M 105,78 l 3,0 0,3 -3,0 z M 117,78 l 3,0 0,3 -3,0 z M 123,78 l 3,0 0,3 -3,0 z M 126,78 l 3,0 0,3 -3,0 z M 129,78 l 3,0 0,3 -3,0 z M 132,78 l 3,0 0,3 -3,0 z M 135,78 l 3,0 0,3 -3,0 z M 141,78 l 3,0 0,3 -3,0 z M 147,78 l 3,0 0,3 -3,0 z M 159,78 l 3,0 0,3 -3,0 z M 165,78 l 3,0 0,3 -3,0 z M 168,78 l 3,0 0,3 -3,0 z M 171,78 l 3,0 0,3 -3,0 z M 180,78 l 3,0 0,3 -3,0 z M 186,78 l 3,0 0,3 -3,0 z M 189,78 l 3,0 0,3 -3,0 z M 192,78 l 3,0 0,3 -3,0 z M 195,78 l 3,0 0,3 -3,0 z M 204,78 l 3,0 0,3 -3,0 z M 207,78 l 3,0 0,3 -3,0 z M 213,78 l 3,0 0,3 -3,0 z M 216,78 l 3,0 0,3 -3,0 z M 219,78 l 3,0 0,3 -3,0 z M 231,78 l 3,0 0,3 -3,0 z M 234,78 l 3,0 0,3 -3,0 z M 240,78 l 3,0 0,3 -3,0 z M 3,81 l 3,0 0,3 -3,0 z M 6,81 l 3,0 0,3 -3,0 z M 12,81 l 3,0 0,3 -3,0 z M 15,81 l 3,0 0,3 -3,0 z M 21,81 l 3,0 0,3 -3,0 z M 27,81 l 3,0 0,3 -3,0 z M 30,81 l 3,0 0,3 -3,0 z M 33,81 l 3,0 0,3 -3,0 z M 36,81 l 3,0 0,3 -3,0 z M 39,81 l 3,0 0,3 -3,0 z M 45,81 l 3,0 0,3 -3,0 z M 48,81 l 3,0 0,3 -3,0 z M 51,81 l 3,0 0,3 -3,0 z M 54,81 l 3,0 0,3 -3,0 z M 57,81 l 3,0 0,3 -3,0 z M 60,81 l 3,0 0,3 -3,0 z M 63,81 l 3,0 0,3 -3,0 z M 72,81 l 3,0 0,3 -3,0 z M 75,81 l 3,0 0,3 -3,0 z M 81,81 l 3,0 0,3 -3,0 z M 87,81 l 3,0 0,3 -3,0 z M 90,81 l 3,0 0,3 -3,0 z M 96,81 l 3,0 0,3 -3,0 z M 99,81 l 3,0 0,3 -3,0 z M 102,81 l 3,0 0,3 -3,0 z M 105,81 l 3,0 0,3 -3,0 z M 108,81 l 3,0 0,3 -3,0 z M 120,81 l 3,0 0,3 -3,0 z M 123,81 l 3,0 0,3 -3,0 z M 132,81 l 3,0 0,3 -3,0 z M 135,81 l 3,0 0,3 -3,0 z M 138,81 l 3,0 0,3 -3,0 z M 147,81 l 3,0 0,3 -3,0 z M 153,81 l 3,0 0,3 -3,0 z M 159,81 l 3,0 0,3 -3,0 z M 162,81 l 3,0 0,3 -3,0 z M 165,81 l 3,0 0,3 -3,0 z M 168,81 l 3,0 0,3 -3,0 z M 171,81 l 3,0 0,3 -3,0 z M 174,81 l 3,0 0,3 -3,0 z M 183,81 l 3,0 0,3 -3,0 z M 189,81 l 3,0 0,3 -3,0 z M 195,81 l 3,0 0,3 -3,0 z M 198,81 l 3,0 0,3 -3,0 z M 204,81 l 3,0 0,3 -3,0 z M 210,81 l 3,0 0,3 -3,0 z M 216,81 l 3,0 0,3 -3,0 z M 219,81 l 3,0 0,3 -3,0 z M 225,81 l 3,0 0,3 -3,0 z M 231,81 l 3,0 0,3 -3,0 z M 234,81 l 3,0 0,3 -3,0 z M 240,81 l 3,0 0,3 -3,0 z M 243,81 l 3,0 0,3 -3,0 z M 6,84 l 3,0 0,3 -3,0 z M 15,84 l 3,0 0,3 -3,0 z M 27,84 l 3,0 0,3 -3,0 z M 33,84 l 3,0 0,3 -3,0 z M 45,84 l 3,0 0,3 -3,0 z M 48,84 l 3,0 0,3 -3,0 z M 51,84 l 3,0 0,3 -3,0 z M 60,84 l 3,0 0,3 -3,0 z M 63,84 l 3,0 0,3 -3,0 z M 66,84 l 3,0 0,3 -3,0 z M 69,84 l 3,0 0,3 -3,0 z M 75,84 l 3,0 0,3 -3,0 z M 87,84 l 3,0 0,3 -3,0 z M 90,84 l 3,0 0,3 -3,0 z M 93,84 l 3,0 0,3 -3,0 z M 96,84 l 3,0 0,3 -3,0 z M 102,84 l 3,0 0,3 -3,0 z M 111,84 l 3,0 0,3 -3,0 z M 114,84 l 3,0 0,3 -3,0 z M 117,84 l 3,0 0,3 -3,0 z M 120,84 l 3,0 0,3 -3,0 z M 126,84 l 3,0 0,3 -3,0 z M 129,84 l 3,0 0,3 -3,0 z M 132,84 l 3,0 0,3 -3,0 z M 138,84 l 3,0 0,3 -3,0 z M 144,84 l 3,0 0,3 -3,0 z M 147,84 l 3,0 0,3 -3,0 z M 159,84 l 3,0 0,3 -3,0 z M 162,84 l 3,0 0,3 -3,0 z M 165,84 l 3,0 0,3 -3,0 z M 168,84 l 3,0 0,3 -3,0 z M 174,84 l 3,0 0,3 -3,0 z M 180,84 l 3,0 0,3 -3,0 z M 192,84 l 3,0 0,3 -3,0 z M 195,84 l 3,0 0,3 -3,0 z M 198,84 l 3,0 0,3 -3,0 z M 204,84 l 3,0 0,3 -3,0 z M 207,84 l 3,0 0,3 -3,0 z M 219,84 l 3,0 0,3 -3,0 z M 231,84 l 3,0 0,3 -3,0 z M 234,84 l 3,0 0,3 -3,0 z M 237,84 l 3,0 0,3 -3,0 z M 243,84 l 3,0 0,3 -3,0 z M 9,87 l 3,0 0,3 -3,0 z M 12,87 l 3,0 0,3 -3,0 z M 15,87 l 3,0 0,3 -3,0 z M 18,87 l 3,0 0,3 -3,0 z M 21,87 l 3,0 0,3 -3,0 z M 24,87 l 3,0 0,3 -3,0 z M 27,87 l 3,0 0,3 -3,0 z M 30,87 l 3,0 0,3 -3,0 z M 39,87 l 3,0 0,3 -3,0 z M 42,87 l 3,0 0,3 -3,0 z M 48,87 l 3,0 0,3 -3,0 z M 51,87 l 3,0 0,3 -3,0 z M 66,87 l 3,0 0,3 -3,0 z M 69,87 l 3,0 0,3 -3,0 z M 72,87 l 3,0 0,3 -3,0 z M 75,87 l 3,0 0,3 -3,0 z M 78,87 l 3,0 0,3 -3,0 z M 81,87 l 3,0 0,3 -3,0 z M 84,87 l 3,0 0,3 -3,0 z M 87,87 l 3,0 0,3 -3,0 z M 93,87 l 3,0 0,3 -3,0 z M 102,87 l 3,0 0,3 -3,0 z M 111,87 l 3,0 0,3 -3,0 z M 117,87 l 3,0 0,3 -3,0 z M 126,87 l 3,0 0,3 -3,0 z M 138,87 l 3,0 0,3 -3,0 z M 147,87 l 3,0 0,3 -3,0 z M 150,87 l 3,0 0,3 -3,0 z M 153,87 l 3,0 0,3 -3,0 z M 156,87 l 3,0 0,3 -3,0 z M 159,87 l 3,0 0,3 -3,0 z M 171,87 l 3,0 0,3 -3,0 z M 174,87 l 3,0 0,3 -3,0 z M 180,87 l 3,0 0,3 -3,0 z M 189,87 l 3,0 0,3 -3,0 z M 204,87 l 3,0 0,3 -3,0 z M 213,87 l 3,0 0,3 -3,0 z M 219,87 l 3,0 0,3 -3,0 z M 222,87 l 3,0 0,3 -3,0 z M 225,87 l 3,0 0,3 -3,0 z M 228,87 l 3,0 0,3 -3,0 z M 231,87 l 3,0 0,3 -3,0 z M 234,87 l 3,0 0,3 -3,0 z M 237,87 l 3,0 0,3 -3,0 z M 243,87 l 3,0 0,3 -3,0 z M 3,90 l 3,0 0,3 -3,0 z M 9,90 l 3,0 0,3 -3,0 z M 12,90 l 3,0 0,3 -3,0 z M 24,90 l 3,0 0,3 -3,0 z M 27,90 l 3,0 0,3 -3,0 z M 30,90 l 3,0 0,3 -3,0 z M 33,90 l 3,0 0,3 -3,0 z M 36,90 l 3,0 0,3 -3,0 z M 39,90 l 3,0 0,3 -3,0 z M 42,90 l 3,0 0,3 -3,0 z M 48,90 l 3,0 0,3 -3,0 z M 54,90 l 3,0 0,3 -3,0 z M 63,90 l 3,0 0,3 -3,0 z M 66,90 l 3,0 0,3 -3,0 z M 72,90 l 3,0 0,3 -3,0 z M 84,90 l 3,0 0,3 -3,0 z M 96,90 l 3,0 0,3 -3,0 z M 102,90 l 3,0 0,3 -3,0 z M 111,90 l 3,0 0,3 -3,0 z M 114,90 l 3,0 0,3 -3,0 z M 117,90 l 3,0 0,3 -3,0 z M 132,90 l 3,0 0,3 -3,0 z M 138,90 l 3,0 0,3 -3,0 z M 144,90 l 3,0 0,3 -3,0 z M 147,90 l 3,0 0,3 -3,0 z M 150,90 l 3,0 0,3 -3,0 z M 159,90 l 3,0 0,3 -3,0 z M 162,90 l 3,0 0,3 -3,0 z M 168,90 l 3,0 0,3 -3,0 z M 180,90 l 3,0 0,3 -3,0 z M 183,90 l 3,0 0,3 -3,0 z M 192,90 l 3,0 0,3 -3,0 z M 195,90 l 3,0 0,3 -3,0 z M 198,90 l 3,0 0,3 -3,0 z M 201,90 l 3,0 0,3 -3,0 z M 204,90 l 3,0 0,3 -3,0 z M 207,90 l 3,0 0,3 -3,0 z M 219,90 l 3,0 0,3 -3,0 z M 222,90 l 3,0 0,3 -3,0 z M 225,90 l 3,0 0,3 -3,0 z M 228,90 l 3,0 0,3 -3,0 z M 237,90 l 3,0 0,3 -3,0 z M 243,90 l 3,0 0,3 -3,0 z M 3,93 l 3,0 0,3 -3,0 z M 6,93 l 3,0 0,3 -3,0 z M 9,93 l 3,0 0,3 -3,0 z M 18,93 l 3,0 0,3 -3,0 z M 21,93 l 3,0 0,3 -3,0 z M 24,93 l 3,0 0,3 -3,0 z M 33,93 l 3,0 0,3 -3,0 z M 39,93 l 3,0 0,3 -3,0 z M 45,93 l 3,0 0,3 -3,0 z M 48,93 l 3,0 0,3 -3,0 z M 51,93 l 3,0 0,3 -3,0 z M 54,93 l 3,0 0,3 -3,0 z M 66,93 l 3,0 0,3 -3,0 z M 69,93 l 3,0 0,3 -3,0 z M 72,93 l 3,0 0,3 -3,0 z M 75,93 l 3,0 0,3 -3,0 z M 81,93 l 3,0 0,3 -3,0 z M 84,93 l 3,0 0,3 -3,0 z M 90,93 l 3,0 0,3 -3,0 z M 93,93 l 3,0 0,3 -3,0 z M 105,93 l 3,0 0,3 -3,0 z M 111,93 l 3,0 0,3 -3,0 z M 123,93 l 3,0 0,3 -3,0 z M 138,93 l 3,0 0,3 -3,0 z M 150,93 l 3,0 0,3 -3,0 z M 156,93 l 3,0 0,3 -3,0 z M 162,93 l 3,0 0,3 -3,0 z M 165,93 l 3,0 0,3 -3,0 z M 180,93 l 3,0 0,3 -3,0 z M 183,93 l 3,0 0,3 -3,0 z M 192,93 l 3,0 0,3 -3,0 z M 207,93 l 3,0 0,3 -3,0 z M 213,93 l 3,0 0,3 -3,0 z M 222,93 l 3,0 0,3 -3,0 z M 225,93 l 3,0 0,3 -3,0 z M 237,93 l 3,0 0,3 -3,0 z M 240,93 l 3,0 0,3 -3,0 z M 3,96 l 3,0 0,3 -3,0 z M 9,96 l 3,0 0,3 -3,0 z M 27,96 l 3,0 0,3 -3,0 z M 30,96 l 3,0 0,3 -3,0 z M 39,96 l 3,0 0,3 -3,0 z M 54,96 l 3,0 0,3 -3,0 z M 57,96 l 3,0 0,3 -3,0 z M 63,96 l 3,0 0,3 -3,0 z M 72,96 l 3,0 0,3 -3,0 z M 84,96 l 3,0 0,3 -3,0 z M 90,96 l 3,0 0,3 -3,0 z M 96,96 l 3,0 0,3 -3,0 z M 99,96 l 3,0 0,3 -3,0 z M 102,96 l 3,0 0,3 -3,0 z M 108,96 l 3,0 0,3 -3,0 z M 120,96 l 3,0 0,3 -3,0 z M 126,96 l 3,0 0,3 -3,0 z M 129,96 l 3,0 0,3 -3,0 z M 135,96 l 3,0 0,3 -3,0 z M 144,96 l 3,0 0,3 -3,0 z M 147,96 l 3,0 0,3 -3,0 z M 153,96 l 3,0 0,3 -3,0 z M 159,96 l 3,0 0,3 -3,0 z M 162,96 l 3,0 0,3 -3,0 z M 165,96 l 3,0 0,3 -3,0 z M 168,96 l 3,0 0,3 -3,0 z M 174,96 l 3,0 0,3 -3,0 z M 177,96 l 3,0 0,3 -3,0 z M 180,96 l 3,0 0,3 -3,0 z M 183,96 l 3,0 0,3 -3,0 z M 186,96 l 3,0 0,3 -3,0 z M 192,96 l 3,0 0,3 -3,0 z M 195,96 l 3,0 0,3 -3,0 z M 201,96 l 3,0 0,3 -3,0 z M 207,96 l 3,0 0,3 -3,0 z M 216,96 l 3,0 0,3 -3,0 z M 228,96 l 3,0 0,3 -3,0 z M 237,96 l 3,0 0,3 -3,0 z M 243,96 l 3,0 0,3 -3,0 z M 3,99 l 3,0 0,3 -3,0 z M 9,99 l 3,0 0,3 -3,0 z M 15,99 l 3,0 0,3 -3,0 z M 18,99 l 3,0 0,3 -3,0 z M 21,99 l 3,0 0,3 -3,0 z M 30,99 l 3,0 0,3 -3,0 z M 33,99 l 3,0 0,3 -3,0 z M 36,99 l 3,0 0,3 -3,0 z M 39,99 l 3,0 0,3 -3,0 z M 51,99 l 3,0 0,3 -3,0 z M 54,99 l 3,0 0,3 -3,0 z M 60,99 l 3,0 0,3 -3,0 z M 66,99 l 3,0 0,3 -3,0 z M 69,99 l 3,0 0,3 -3,0 z M 75,99 l 3,0 0,3 -3,0 z M 78,99 l 3,0 0,3 -3,0 z M 84,99 l 3,0 0,3 -3,0 z M 87,99 l 3,0 0,3 -3,0 z M 93,99 l 3,0 0,3 -3,0 z M 99,99 l 3,0 0,3 -3,0 z M 108,99 l 3,0 0,3 -3,0 z M 111,99 l 3,0 0,3 -3,0 z M 114,99 l 3,0 0,3 -3,0 z M 129,99 l 3,0 0,3 -3,0 z M 135,99 l 3,0 0,3 -3,0 z M 138,99 l 3,0 0,3 -3,0 z M 141,99 l 3,0 0,3 -3,0 z M 159,99 l 3,0 0,3 -3,0 z M 168,99 l 3,0 0,3 -3,0 z M 171,99 l 3,0 0,3 -3,0 z M 177,99 l 3,0 0,3 -3,0 z M 183,99 l 3,0 0,3 -3,0 z M 186,99 l 3,0 0,3 -3,0 z M 189,99 l 3,0 0,3 -3,0 z M 195,99 l 3,0 0,3 -3,0 z M 210,99 l 3,0 0,3 -3,0 z M 225,99 l 3,0 0,3 -3,0 z M 228,99 l 3,0 0,3 -3,0 z M 237,99 l 3,0 0,3 -3,0 z M 240,99 l 3,0 0,3 -3,0 z M 243,99 l 3,0 0,3 -3,0 z M 6,102 l 3,0 0,3 -3,0 z M 9,102 l 3,0 0,3 -3,0 z M 12,102 l 3,0 0,3 -3,0 z M 15,102 l 3,0 0,3 -3,0 z M 18,102 l 3,0 0,3 -3,0 z M 27,102 l 3,0 0,3 -3,0 z M 30,102 l 3,0 0,3 -3,0 z M 39,102 l 3,0 0,3 -3,0 z M 42,102 l 3,0 0,3 -3,0 z M 48,102 l 3,0 0,3 -3,0 z M 51,102 l 3,0 0,3 -3,0 z M 54,102 l 3,0 0,3 -3,0 z M 63,102 l 3,0 0,3 -3,0 z M 66,102 l 3,0 0,3 -3,0 z M 72,102 l 3,0 0,3 -3,0 z M 93,102 l 3,0 0,3 -3,0 z M 96,102 l 3,0 0,3 -3,0 z M 99,102 l 3,0 0,3 -3,0 z M 111,102 l 3,0 0,3 -3,0 z M 114,102 l 3,0 0,3 -3,0 z M 120,102 l 3,0 0,3 -3,0 z M 123,102 l 3,0 0,3 -3,0 z M 132,102 l 3,0 0,3 -3,0 z M 138,102 l 3,0 0,3 -3,0 z M 141,102 l 3,0 0,3 -3,0 z M 144,102 l 3,0 0,3 -3,0 z M 147,102 l 3,0 0,3 -3,0 z M 153,102 l 3,0 0,3 -3,0 z M 156,102 l 3,0 0,3 -3,0 z M 165,102 l 3,0 0,3 -3,0 z M 168,102 l 3,0 0,3 -3,0 z M 171,102 l 3,0 0,3 -3,0 z M 174,102 l 3,0 0,3 -3,0 z M 177,102 l 3,0 0,3 -3,0 z M 180,102 l 3,0 0,3 -3,0 z M 183,102 l 3,0 0,3 -3,0 z M 189,102 l 3,0 0,3 -3,0 z M 192,102 l 3,0 0,3 -3,0 z M 198,102 l 3,0 0,3 -3,0 z M 210,102 l 3,0 0,3 -3,0 z M 213,102 l 3,0 0,3 -3,0 z M 216,102 l 3,0 0,3 -3,0 z M 222,102 l 3,0 0,3 -3,0 z M 228,102 l 3,0 0,3 -3,0 z M 234,102 l 3,0 0,3 -3,0 z M 237,102 l 3,0 0,3 -3,0 z M 21,105 l 3,0 0,3 -3,0 z M 27,105 l 3,0 0,3 -3,0 z M 33,105 l 3,0 0,3 -3,0 z M 39,105 l 3,0 0,3 -3,0 z M 42,105 l 3,0 0,3 -3,0 z M 54,105 l 3,0 0,3 -3,0 z M 57,105 l 3,0 0,3 -3,0 z M 66,105 l 3,0 0,3 -3,0 z M 72,105 l 3,0 0,3 -3,0 z M 78,105 l 3,0 0,3 -3,0 z M 84,105 l 3,0 0,3 -3,0 z M 99,105 l 3,0 0,3 -3,0 z M 105,105 l 3,0 0,3 -3,0 z M 108,105 l 3,0 0,3 -3,0 z M 111,105 l 3,0 0,3 -3,0 z M 114,105 l 3,0 0,3 -3,0 z M 123,105 l 3,0 0,3 -3,0 z M 135,105 l 3,0 0,3 -3,0 z M 141,105 l 3,0 0,3 -3,0 z M 156,105 l 3,0 0,3 -3,0 z M 159,105 l 3,0 0,3 -3,0 z M 162,105 l 3,0 0,3 -3,0 z M 165,105 l 3,0 0,3 -3,0 z M 168,105 l 3,0 0,3 -3,0 z M 174,105 l 3,0 0,3 -3,0 z M 177,105 l 3,0 0,3 -3,0 z M 183,105 l 3,0 0,3 -3,0 z M 186,105 l 3,0 0,3 -3,0 z M 189,105 l 3,0 0,3 -3,0 z M 192,105 l 3,0 0,3 -3,0 z M 198,105 l 3,0 0,3 -3,0 z M 201,105 l 3,0 0,3 -3,0 z M 204,105 l 3,0 0,3 -3,0 z M 210,105 l 3,0 0,3 -3,0 z M 216,105 l 3,0 0,3 -3,0 z M 222,105 l 3,0 0,3 -3,0 z M 231,105 l 3,0 0,3 -3,0 z M 237,105 l 3,0 0,3 -3,0 z M 3,108 l 3,0 0,3 -3,0 z M 6,108 l 3,0 0,3 -3,0 z M 12,108 l 3,0 0,3 -3,0 z M 15,108 l 3,0 0,3 -3,0 z M 24,108 l 3,0 0,3 -3,0 z M 27,108 l 3,0 0,3 -3,0 z M 30,108 l 3,0 0,3 -3,0 z M 36,108 l 3,0 0,3 -3,0 z M 39,108 l 3,0 0,3 -3,0 z M 45,108 l 3,0 0,3 -3,0 z M 48,108 l 3,0 0,3 -3,0 z M 63,108 l 3,0 0,3 -3,0 z M 66,108 l 3,0 0,3 -3,0 z M 72,108 l 3,0 0,3 -3,0 z M 75,108 l 3,0 0,3 -3,0 z M 102,108 l 3,0 0,3 -3,0 z M 111,108 l 3,0 0,3 -3,0 z M 114,108 l 3,0 0,3 -3,0 z M 120,108 l 3,0 0,3 -3,0 z M 123,108 l 3,0 0,3 -3,0 z M 126,108 l 3,0 0,3 -3,0 z M 138,108 l 3,0 0,3 -3,0 z M 153,108 l 3,0 0,3 -3,0 z M 156,108 l 3,0 0,3 -3,0 z M 165,108 l 3,0 0,3 -3,0 z M 171,108 l 3,0 0,3 -3,0 z M 174,108 l 3,0 0,3 -3,0 z M 180,108 l 3,0 0,3 -3,0 z M 195,108 l 3,0 0,3 -3,0 z M 201,108 l 3,0 0,3 -3,0 z M 207,108 l 3,0 0,3 -3,0 z M 210,108 l 3,0 0,3 -3,0 z M 213,108 l 3,0 0,3 -3,0 z M 225,108 l 3,0 0,3 -3,0 z M 228,108 l 3,0 0,3 -3,0 z M 234,108 l 3,0 0,3 -3,0 z M 237,108 l 3,0 0,3 -3,0 z M 3,111 l 3,0 0,3 -3,0 z M 9,111 l 3,0 0,3 -3,0 z M 12,111 l 3,0 0,3 -3,0 z M 18,111 l 3,0 0,3 -3,0 z M 21,111 l 3,0 0,3 -3,0 z M 24,111 l 3,0 0,3 -3,0 z M 30,111 l 3,0 0,3 -3,0 z M 33,111 l 3,0 0,3 -3,0 z M 36,111 l 3,0 0,3 -3,0 z M 42,111 l 3,0 0,3 -3,0 z M 45,111 l 3,0 0,3 -3,0 z M 66,111 l 3,0 0,3 -3,0 z M 69,111 l 3,0 0,3 -3,0 z M 75,111 l 3,0 0,3 -3,0 z M 84,111 l 3,0 0,3 -3,0 z M 90,111 l 3,0 0,3 -3,0 z M 96,111 l 3,0 0,3 -3,0 z M 108,111 l 3,0 0,3 -3,0 z M 123,111 l 3,0 0,3 -3,0 z M 126,111 l 3,0 0,3 -3,0 z M 129,111 l 3,0 0,3 -3,0 z M 144,111 l 3,0 0,3 -3,0 z M 156,111 l 3,0 0,3 -3,0 z M 159,111 l 3,0 0,3 -3,0 z M 162,111 l 3,0 0,3 -3,0 z M 168,111 l 3,0 0,3 -3,0 z M 174,111 l 3,0 0,3 -3,0 z M 177,111 l 3,0 0,3 -3,0 z M 186,111 l 3,0 0,3 -3,0 z M 189,111 l 3,0 0,3 -3,0 z M 192,111 l 3,0 0,3 -3,0 z M 198,111 l 3,0 0,3 -3,0 z M 204,111 l 3,0 0,3 -3,0 z M 213,111 l 3,0 0,3 -3,0 z M 219,111 l 3,0 0,3 -3,0 z M 222,111 l 3,0 0,3 -3,0 z M 231,111 l 3,0 0,3 -3,0 z M 234,111 l 3,0 0,3 -3,0 z M 3,114 l 3,0 0,3 -3,0 z M 9,114 l 3,0 0,3 -3,0 z M 15,114 l 3,0 0,3 -3,0 z M 24,114 l 3,0 0,3 -3,0 z M 27,114 l 3,0 0,3 -3,0 z M 30,114 l 3,0 0,3 -3,0 z M 45,114 l 3,0 0,3 -3,0 z M 48,114 l 3,0 0,3 -3,0 z M 51,114 l 3,0 0,3 -3,0 z M 57,114 l 3,0 0,3 -3,0 z M 60,114 l 3,0 0,3 -3,0 z M 63,114 l 3,0 0,3 -3,0 z M 66,114 l 3,0 0,3 -3,0 z M 75,114 l 3,0 0,3 -3,0 z M 87,114 l 3,0 0,3 -3,0 z M 99,114 l 3,0 0,3 -3,0 z M 102,114 l 3,0 0,3 -3,0 z M 120,114 l 3,0 0,3 -3,0 z M 123,114 l 3,0 0,3 -3,0 z M 126,114 l 3,0 0,3 -3,0 z M 129,114 l 3,0 0,3 -3,0 z M 138,114 l 3,0 0,3 -3,0 z M 153,114 l 3,0 0,3 -3,0 z M 162,114 l 3,0 0,3 -3,0 z M 165,114 l 3,0 0,3 -3,0 z M 174,114 l 3,0 0,3 -3,0 z M 177,114 l 3,0 0,3 -3,0 z M 183,114 l 3,0 0,3 -3,0 z M 186,114 l 3,0 0,3 -3,0 z M 189,114 l 3,0 0,3 -3,0 z M 192,114 l 3,0 0,3 -3,0 z M 195,114 l 3,0 0,3 -3,0 z M 198,114 l 3,0 0,3 -3,0 z M 201,114 l 3,0 0,3 -3,0 z M 210,114 l 3,0 0,3 -3,0 z M 213,114 l 3,0 0,3 -3,0 z M 219,114 l 3,0 0,3 -3,0 z M 240,114 l 3,0 0,3 -3,0 z M 21,117 l 3,0 0,3 -3,0 z M 27,117 l 3,0 0,3 -3,0 z M 33,117 l 3,0 0,3 -3,0 z M 36,117 l 3,0 0,3 -3,0 z M 39,117 l 3,0 0,3 -3,0 z M 48,117 l 3,0 0,3 -3,0 z M 51,117 l 3,0 0,3 -3,0 z M 60,117 l 3,0 0,3 -3,0 z M 69,117 l 3,0 0,3 -3,0 z M 75,117 l 3,0 0,3 -3,0 z M 84,117 l 3,0 0,3 -3,0 z M 87,117 l 3,0 0,3 -3,0 z M 90,117 l 3,0 0,3 -3,0 z M 93,117 l 3,0 0,3 -3,0 z M 99,117 l 3,0 0,3 -3,0 z M 108,117 l 3,0 0,3 -3,0 z M 123,117 l 3,0 0,3 -3,0 z M 126,117 l 3,0 0,3 -3,0 z M 129,117 l 3,0 0,3 -3,0 z M 150,117 l 3,0 0,3 -3,0 z M 153,117 l 3,0 0,3 -3,0 z M 156,117 l 3,0 0,3 -3,0 z M 165,117 l 3,0 0,3 -3,0 z M 168,117 l 3,0 0,3 -3,0 z M 177,117 l 3,0 0,3 -3,0 z M 180,117 l 3,0 0,3 -3,0 z M 183,117 l 3,0 0,3 -3,0 z M 186,117 l 3,0 0,3 -3,0 z M 201,117 l 3,0 0,3 -3,0 z M 204,117 l 3,0 0,3 -3,0 z M 210,117 l 3,0 0,3 -3,0 z M 219,117 l 3,0 0,3 -3,0 z M 222,117 l 3,0 0,3 -3,0 z M 231,117 l 3,0 0,3 -3,0 z M 240,117 l 3,0 0,3 -3,0 z M 243,117 l 3,0 0,3 -3,0 z M 3,120 l 3,0 0,3 -3,0 z M 6,120 l 3,0 0,3 -3,0 z M 12,120 l 3,0 0,3 -3,0 z M 15,120 l 3,0 0,3 -3,0 z M 33,120 l 3,0 0,3 -3,0 z M 36,120 l 3,0 0,3 -3,0 z M 39,120 l 3,0 0,3 -3,0 z M 42,120 l 3,0 0,3 -3,0 z M 45,120 l 3,0 0,3 -3,0 z M 48,120 l 3,0 0,3 -3,0 z M 51,120 l 3,0 0,3 -3,0 z M 57,120 l 3,0 0,3 -3,0 z M 60,120 l 3,0 0,3 -3,0 z M 69,120 l 3,0 0,3 -3,0 z M 81,120 l 3,0 0,3 -3,0 z M 84,120 l 3,0 0,3 -3,0 z M 87,120 l 3,0 0,3 -3,0 z M 99,120 l 3,0 0,3 -3,0 z M 117,120 l 3,0 0,3 -3,0 z M 123,120 l 3,0 0,3 -3,0 z M 138,120 l 3,0 0,3 -3,0 z M 141,120 l 3,0 0,3 -3,0 z M 147,120 l 3,0 0,3 -3,0 z M 150,120 l 3,0 0,3 -3,0 z M 156,120 l 3,0 0,3 -3,0 z M 162,120 l 3,0 0,3 -3,0 z M 165,120 l 3,0 0,3 -3,0 z M 171,120 l 3,0 0,3 -3,0 z M 174,120 l 3,0 0,3 -3,0 z M 183,120 l 3,0 0,3 -3,0 z M 186,120 l 3,0 0,3 -3,0 z M 198,120 l 3,0 0,3 -3,0 z M 201,120 l 3,0 0,3 -3,0 z M 207,120 l 3,0 0,3 -3,0 z M 210,120 l 3,0 0,3 -3,0 z M 219,120 l 3,0 0,3 -3,0 z M 225,120 l 3,0 0,3 -3,0 z M 240,120 l 3,0 0,3 -3,0 z M 243,120 l 3,0 0,3 -3,0 z M 3,123 l 3,0 0,3 -3,0 z M 6,123 l 3,0 0,3 -3,0 z M 9,123 l 3,0 0,3 -3,0 z M 15,123 l 3,0 0,3 -3,0 z M 18,123 l 3,0 0,3 -3,0 z M 21,123 l 3,0 0,3 -3,0 z M 24,123 l 3,0 0,3 -3,0 z M 30,123 l 3,0 0,3 -3,0 z M 42,123 l 3,0 0,3 -3,0 z M 54,123 l 3,0 0,3 -3,0 z M 57,123 l 3,0 0,3 -3,0 z M 75,123 l 3,0 0,3 -3,0 z M 78,123 l 3,0 0,3 -3,0 z M 84,123 l 3,0 0,3 -3,0 z M 90,123 l 3,0 0,3 -3,0 z M 102,123 l 3,0 0,3 -3,0 z M 105,123 l 3,0 0,3 -3,0 z M 108,123 l 3,0 0,3 -3,0 z M 111,123 l 3,0 0,3 -3,0 z M 120,123 l 3,0 0,3 -3,0 z M 132,123 l 3,0 0,3 -3,0 z M 135,123 l 3,0 0,3 -3,0 z M 138,123 l 3,0 0,3 -3,0 z M 150,123 l 3,0 0,3 -3,0 z M 153,123 l 3,0 0,3 -3,0 z M 165,123 l 3,0 0,3 -3,0 z M 168,123 l 3,0 0,3 -3,0 z M 183,123 l 3,0 0,3 -3,0 z M 186,123 l 3,0 0,3 -3,0 z M 189,123 l 3,0 0,3 -3,0 z M 192,123 l 3,0 0,3 -3,0 z M 201,123 l 3,0 0,3 -3,0 z M 204,123 l 3,0 0,3 -3,0 z M 207,123 l 3,0 0,3 -3,0 z M 210,123 l 3,0 0,3 -3,0 z M 219,123 l 3,0 0,3 -3,0 z M 222,123 l 3,0 0,3 -3,0 z M 225,123 l 3,0 0,3 -3,0 z M 231,123 l 3,0 0,3 -3,0 z M 234,123 l 3,0 0,3 -3,0 z M 243,123 l 3,0 0,3 -3,0 z M 3,126 l 3,0 0,3 -3,0 z M 6,126 l 3,0 0,3 -3,0 z M 9,126 l 3,0 0,3 -3,0 z M 12,126 l 3,0 0,3 -3,0 z M 15,126 l 3,0 0,3 -3,0 z M 18,126 l 3,0 0,3 -3,0 z M 30,126 l 3,0 0,3 -3,0 z M 39,126 l 3,0 0,3 -3,0 z M 45,126 l 3,0 0,3 -3,0 z M 48,126 l 3,0 0,3 -3,0 z M 57,126 l 3,0 0,3 -3,0 z M 72,126 l 3,0 0,3 -3,0 z M 78,126 l 3,0 0,3 -3,0 z M 90,126 l 3,0 0,3 -3,0 z M 93,126 l 3,0 0,3 -3,0 z M 108,126 l 3,0 0,3 -3,0 z M 114,126 l 3,0 0,3 -3,0 z M 117,126 l 3,0 0,3 -3,0 z M 120,126 l 3,0 0,3 -3,0 z M 126,126 l 3,0 0,3 -3,0 z M 132,126 l 3,0 0,3 -3,0 z M 144,126 l 3,0 0,3 -3,0 z M 147,126 l 3,0 0,3 -3,0 z M 153,126 l 3,0 0,3 -3,0 z M 156,126 l 3,0 0,3 -3,0 z M 159,126 l 3,0 0,3 -3,0 z M 171,126 l 3,0 0,3 -3,0 z M 174,126 l 3,0 0,3 -3,0 z M 183,126 l 3,0 0,3 -3,0 z M 186,126 l 3,0 0,3 -3,0 z M 192,126 l 3,0 0,3 -3,0 z M 195,126 l 3,0 0,3 -3,0 z M 198,126 l 3,0 0,3 -3,0 z M 201,126 l 3,0 0,3 -3,0 z M 207,126 l 3,0 0,3 -3,0 z M 210,126 l 3,0 0,3 -3,0 z M 213,126 l 3,0 0,3 -3,0 z M 219,126 l 3,0 0,3 -3,0 z M 228,126 l 3,0 0,3 -3,0 z M 231,126 l 3,0 0,3 -3,0 z M 234,126 l 3,0 0,3 -3,0 z M 237,126 l 3,0 0,3 -3,0 z M 3,129 l 3,0 0,3 -3,0 z M 6,129 l 3,0 0,3 -3,0 z M 15,129 l 3,0 0,3 -3,0 z M 21,129 l 3,0 0,3 -3,0 z M 27,129 l 3,0 0,3 -3,0 z M 30,129 l 3,0 0,3 -3,0 z M 33,129 l 3,0 0,3 -3,0 z M 36,129 l 3,0 0,3 -3,0 z M 42,129 l 3,0 0,3 -3,0 z M 45,129 l 3,0 0,3 -3,0 z M 54,129 l 3,0 0,3 -3,0 z M 57,129 l 3,0 0,3 -3,0 z M 60,129 l 3,0 0,3 -3,0 z M 63,129 l 3,0 0,3 -3,0 z M 78,129 l 3,0 0,3 -3,0 z M 90,129 l 3,0 0,3 -3,0 z M 96,129 l 3,0 0,3 -3,0 z M 99,129 l 3,0 0,3 -3,0 z M 105,129 l 3,0 0,3 -3,0 z M 111,129 l 3,0 0,3 -3,0 z M 120,129 l 3,0 0,3 -3,0 z M 123,129 l 3,0 0,3 -3,0 z M 126,129 l 3,0 0,3 -3,0 z M 132,129 l 3,0 0,3 -3,0 z M 138,129 l 3,0 0,3 -3,0 z M 141,129 l 3,0 0,3 -3,0 z M 144,129 l 3,0 0,3 -3,0 z M 153,129 l 3,0 0,3 -3,0 z M 162,129 l 3,0 0,3 -3,0 z M 165,129 l 3,0 0,3 -3,0 z M 168,129 l 3,0 0,3 -3,0 z M 183,129 l 3,0 0,3 -3,0 z M 186,129 l 3,0 0,3 -3,0 z M 192,129 l 3,0 0,3 -3,0 z M 213,129 l 3,0 0,3 -3,0 z M 228,129 l 3,0 0,3 -3,0 z M 231,129 l 3,0 0,3 -3,0 z M 237,129 l 3,0 0,3 -3,0 z M 243,129 l 3,0 0,3 -3,0 z M 12,132 l 3,0 0,3 -3,0 z M 15,132 l 3,0 0,3 -3,0 z M 24,132 l 3,0 0,3 -3,0 z M 27,132 l 3,0 0,3 -3,0 z M 30,132 l 3,0 0,3 -3,0 z M 36,132 l 3,0 0,3 -3,0 z M 39,132 l 3,0 0,3 -3,0 z M 42,132 l 3,0 0,3 -3,0 z M 54,132 l 3,0 0,3 -3,0 z M 60,132 l 3,0 0,3 -3,0 z M 63,132 l 3,0 0,3 -3,0 z M 72,132 l 3,0 0,3 -3,0 z M 78,132 l 3,0 0,3 -3,0 z M 84,132 l 3,0 0,3 -3,0 z M 90,132 l 3,0 0,3 -3,0 z M 96,132 l 3,0 0,3 -3,0 z M 108,132 l 3,0 0,3 -3,0 z M 111,132 l 3,0 0,3 -3,0 z M 114,132 l 3,0 0,3 -3,0 z M 126,132 l 3,0 0,3 -3,0 z M 135,132 l 3,0 0,3 -3,0 z M 141,132 l 3,0 0,3 -3,0 z M 144,132 l 3,0 0,3 -3,0 z M 147,132 l 3,0 0,3 -3,0 z M 150,132 l 3,0 0,3 -3,0 z M 165,132 l 3,0 0,3 -3,0 z M 180,132 l 3,0 0,3 -3,0 z M 186,132 l 3,0 0,3 -3,0 z M 189,132 l 3,0 0,3 -3,0 z M 204,132 l 3,0 0,3 -3,0 z M 207,132 l 3,0 0,3 -3,0 z M 219,132 l 3,0 0,3 -3,0 z M 222,132 l 3,0 0,3 -3,0 z M 231,132 l 3,0 0,3 -3,0 z M 3,135 l 3,0 0,3 -3,0 z M 12,135 l 3,0 0,3 -3,0 z M 18,135 l 3,0 0,3 -3,0 z M 21,135 l 3,0 0,3 -3,0 z M 24,135 l 3,0 0,3 -3,0 z M 30,135 l 3,0 0,3 -3,0 z M 36,135 l 3,0 0,3 -3,0 z M 42,135 l 3,0 0,3 -3,0 z M 45,135 l 3,0 0,3 -3,0 z M 51,135 l 3,0 0,3 -3,0 z M 54,135 l 3,0 0,3 -3,0 z M 57,135 l 3,0 0,3 -3,0 z M 63,135 l 3,0 0,3 -3,0 z M 66,135 l 3,0 0,3 -3,0 z M 69,135 l 3,0 0,3 -3,0 z M 75,135 l 3,0 0,3 -3,0 z M 81,135 l 3,0 0,3 -3,0 z M 84,135 l 3,0 0,3 -3,0 z M 87,135 l 3,0 0,3 -3,0 z M 96,135 l 3,0 0,3 -3,0 z M 99,135 l 3,0 0,3 -3,0 z M 108,135 l 3,0 0,3 -3,0 z M 114,135 l 3,0 0,3 -3,0 z M 120,135 l 3,0 0,3 -3,0 z M 132,135 l 3,0 0,3 -3,0 z M 135,135 l 3,0 0,3 -3,0 z M 138,135 l 3,0 0,3 -3,0 z M 141,135 l 3,0 0,3 -3,0 z M 144,135 l 3,0 0,3 -3,0 z M 147,135 l 3,0 0,3 -3,0 z M 153,135 l 3,0 0,3 -3,0 z M 156,135 l 3,0 0,3 -3,0 z M 162,135 l 3,0 0,3 -3,0 z M 165,135 l 3,0 0,3 -3,0 z M 168,135 l 3,0 0,3 -3,0 z M 177,135 l 3,0 0,3 -3,0 z M 180,135 l 3,0 0,3 -3,0 z M 183,135 l 3,0 0,3 -3,0 z M 192,135 l 3,0 0,3 -3,0 z M 195,135 l 3,0 0,3 -3,0 z M 198,135 l 3,0 0,3 -3,0 z M 201,135 l 3,0 0,3 -3,0 z M 204,135 l 3,0 0,3 -3,0 z M 207,135 l 3,0 0,3 -3,0 z M 213,135 l 3,0 0,3 -3,0 z M 228,135 l 3,0 0,3 -3,0 z M 234,135 l 3,0 0,3 -3,0 z M 240,135 l 3,0 0,3 -3,0 z M 243,135 l 3,0 0,3 -3,0 z M 6,138 l 3,0 0,3 -3,0 z M 12,138 l 3,0 0,3 -3,0 z M 18,138 l 3,0 0,3 -3,0 z M 24,138 l 3,0 0,3 -3,0 z M 27,138 l 3,0 0,3 -3,0 z M 33,138 l 3,0 0,3 -3,0 z M 42,138 l 3,0 0,3 -3,0 z M 45,138 l 3,0 0,3 -3,0 z M 51,138 l 3,0 0,3 -3,0 z M 60,138 l 3,0 0,3 -3,0 z M 75,138 l 3,0 0,3 -3,0 z M 78,138 l 3,0 0,3 -3,0 z M 84,138 l 3,0 0,3 -3,0 z M 87,138 l 3,0 0,3 -3,0 z M 90,138 l 3,0 0,3 -3,0 z M 96,138 l 3,0 0,3 -3,0 z M 99,138 l 3,0 0,3 -3,0 z M 102,138 l 3,0 0,3 -3,0 z M 108,138 l 3,0 0,3 -3,0 z M 111,138 l 3,0 0,3 -3,0 z M 126,138 l 3,0 0,3 -3,0 z M 132,138 l 3,0 0,3 -3,0 z M 138,138 l 3,0 0,3 -3,0 z M 144,138 l 3,0 0,3 -3,0 z M 147,138 l 3,0 0,3 -3,0 z M 150,138 l 3,0 0,3 -3,0 z M 165,138 l 3,0 0,3 -3,0 z M 168,138 l 3,0 0,3 -3,0 z M 171,138 l 3,0 0,3 -3,0 z M 174,138 l 3,0 0,3 -3,0 z M 192,138 l 3,0 0,3 -3,0 z M 201,138 l 3,0 0,3 -3,0 z M 204,138 l 3,0 0,3 -3,0 z M 210,138 l 3,0 0,3 -3,0 z M 216,138 l 3,0 0,3 -3,0 z M 219,138 l 3,0 0,3 -3,0 z M 222,138 l 3,0 0,3 -3,0 z M 225,138 l 3,0 0,3 -3,0 z M 231,138 l 3,0 0,3 -3,0 z M 234,138 l 3,0 0,3 -3,0 z M 237,138 l 3,0 0,3 -3,0 z M 6,141 l 3,0 0,3 -3,0 z M 9,141 l 3,0 0,3 -3,0 z M 12,141 l 3,0 0,3 -3,0 z M 15,141 l 3,0 0,3 -3,0 z M 18,141 l 3,0 0,3 -3,0 z M 21,141 l 3,0 0,3 -3,0 z M 24,141 l 3,0 0,3 -3,0 z M 27,141 l 3,0 0,3 -3,0 z M 36,141 l 3,0 0,3 -3,0 z M 39,141 l 3,0 0,3 -3,0 z M 48,141 l 3,0 0,3 -3,0 z M 51,141 l 3,0 0,3 -3,0 z M 57,141 l 3,0 0,3 -3,0 z M 63,141 l 3,0 0,3 -3,0 z M 66,141 l 3,0 0,3 -3,0 z M 72,141 l 3,0 0,3 -3,0 z M 84,141 l 3,0 0,3 -3,0 z M 87,141 l 3,0 0,3 -3,0 z M 93,141 l 3,0 0,3 -3,0 z M 96,141 l 3,0 0,3 -3,0 z M 102,141 l 3,0 0,3 -3,0 z M 114,141 l 3,0 0,3 -3,0 z M 117,141 l 3,0 0,3 -3,0 z M 120,141 l 3,0 0,3 -3,0 z M 129,141 l 3,0 0,3 -3,0 z M 132,141 l 3,0 0,3 -3,0 z M 135,141 l 3,0 0,3 -3,0 z M 138,141 l 3,0 0,3 -3,0 z M 144,141 l 3,0 0,3 -3,0 z M 147,141 l 3,0 0,3 -3,0 z M 150,141 l 3,0 0,3 -3,0 z M 156,141 l 3,0 0,3 -3,0 z M 162,141 l 3,0 0,3 -3,0 z M 165,141 l 3,0 0,3 -3,0 z M 168,141 l 3,0 0,3 -3,0 z M 177,141 l 3,0 0,3 -3,0 z M 180,141 l 3,0 0,3 -3,0 z M 183,141 l 3,0 0,3 -3,0 z M 189,141 l 3,0 0,3 -3,0 z M 195,141 l 3,0 0,3 -3,0 z M 201,141 l 3,0 0,3 -3,0 z M 204,141 l 3,0 0,3 -3,0 z M 210,141 l 3,0 0,3 -3,0 z M 225,141 l 3,0 0,3 -3,0 z M 228,141 l 3,0 0,3 -3,0 z M 234,141 l 3,0 0,3 -3,0 z M 237,141 l 3,0 0,3 -3,0 z M 243,141 l 3,0 0,3 -3,0 z M 3,144 l 3,0 0,3 -3,0 z M 6,144 l 3,0 0,3 -3,0 z M 12,144 l 3,0 0,3 -3,0 z M 30,144 l 3,0 0,3 -3,0 z M 36,144 l 3,0 0,3 -3,0 z M 39,144 l 3,0 0,3 -3,0 z M 42,144 l 3,0 0,3 -3,0 z M 57,144 l 3,0 0,3 -3,0 z M 63,144 l 3,0 0,3 -3,0 z M 66,144 l 3,0 0,3 -3,0 z M 69,144 l 3,0 0,3 -3,0 z M 75,144 l 3,0 0,3 -3,0 z M 78,144 l 3,0 0,3 -3,0 z M 81,144 l 3,0 0,3 -3,0 z M 84,144 l 3,0 0,3 -3,0 z M 90,144 l 3,0 0,3 -3,0 z M 96,144 l 3,0 0,3 -3,0 z M 129,144 l 3,0 0,3 -3,0 z M 132,144 l 3,0 0,3 -3,0 z M 135,144 l 3,0 0,3 -3,0 z M 141,144 l 3,0 0,3 -3,0 z M 144,144 l 3,0 0,3 -3,0 z M 147,144 l 3,0 0,3 -3,0 z M 150,144 l 3,0 0,3 -3,0 z M 156,144 l 3,0 0,3 -3,0 z M 159,144 l 3,0 0,3 -3,0 z M 162,144 l 3,0 0,3 -3,0 z M 168,144 l 3,0 0,3 -3,0 z M 171,144 l 3,0 0,3 -3,0 z M 174,144 l 3,0 0,3 -3,0 z M 180,144 l 3,0 0,3 -3,0 z M 183,144 l 3,0 0,3 -3,0 z M 186,144 l 3,0 0,3 -3,0 z M 192,144 l 3,0 0,3 -3,0 z M 195,144 l 3,0 0,3 -3,0 z M 201,144 l 3,0 0,3 -3,0 z M 204,144 l 3,0 0,3 -3,0 z M 207,144 l 3,0 0,3 -3,0 z M 210,144 l 3,0 0,3 -3,0 z M 219,144 l 3,0 0,3 -3,0 z M 228,144 l 3,0 0,3 -3,0 z M 240,144 l 3,0 0,3 -3,0 z M 3,147 l 3,0 0,3 -3,0 z M 12,147 l 3,0 0,3 -3,0 z M 15,147 l 3,0 0,3 -3,0 z M 18,147 l 3,0 0,3 -3,0 z M 21,147 l 3,0 0,3 -3,0 z M 24,147 l 3,0 0,3 -3,0 z M 27,147 l 3,0 0,3 -3,0 z M 30,147 l 3,0 0,3 -3,0 z M 33,147 l 3,0 0,3 -3,0 z M 36,147 l 3,0 0,3 -3,0 z M 39,147 l 3,0 0,3 -3,0 z M 42,147 l 3,0 0,3 -3,0 z M 48,147 l 3,0 0,3 -3,0 z M 51,147 l 3,0 0,3 -3,0 z M 60,147 l 3,0 0,3 -3,0 z M 72,147 l 3,0 0,3 -3,0 z M 75,147 l 3,0 0,3 -3,0 z M 78,147 l 3,0 0,3 -3,0 z M 81,147 l 3,0 0,3 -3,0 z M 84,147 l 3,0 0,3 -3,0 z M 87,147 l 3,0 0,3 -3,0 z M 90,147 l 3,0 0,3 -3,0 z M 93,147 l 3,0 0,3 -3,0 z M 96,147 l 3,0 0,3 -3,0 z M 102,147 l 3,0 0,3 -3,0 z M 105,147 l 3,0 0,3 -3,0 z M 108,147 l 3,0 0,3 -3,0 z M 114,147 l 3,0 0,3 -3,0 z M 117,147 l 3,0 0,3 -3,0 z M 120,147 l 3,0 0,3 -3,0 z M 123,147 l 3,0 0,3 -3,0 z M 126,147 l 3,0 0,3 -3,0 z M 129,147 l 3,0 0,3 -3,0 z M 138,147 l 3,0 0,3 -3,0 z M 144,147 l 3,0 0,3 -3,0 z M 147,147 l 3,0 0,3 -3,0 z M 150,147 l 3,0 0,3 -3,0 z M 153,147 l 3,0 0,3 -3,0 z M 156,147 l 3,0 0,3 -3,0 z M 159,147 l 3,0 0,3 -3,0 z M 162,147 l 3,0 0,3 -3,0 z M 174,147 l 3,0 0,3 -3,0 z M 180,147 l 3,0 0,3 -3,0 z M 192,147 l 3,0 0,3 -3,0 z M 198,147 l 3,0 0,3 -3,0 z M 201,147 l 3,0 0,3 -3,0 z M 207,147 l 3,0 0,3 -3,0 z M 210,147 l 3,0 0,3 -3,0 z M 213,147 l 3,0 0,3 -3,0 z M 216,147 l 3,0 0,3 -3,0 z M 219,147 l 3,0 0,3 -3,0 z M 222,147 l 3,0 0,3 -3,0 z M 225,147 l 3,0 0,3 -3,0 z M 228,147 l 3,0 0,3 -3,0 z M 231,147 l 3,0 0,3 -3,0 z M 237,147 l 3,0 0,3 -3,0 z M 243,147 l 3,0 0,3 -3,0 z M 6,150 l 3,0 0,3 -3,0 z M 12,150 l 3,0 0,3 -3,0 z M 15,150 l 3,0 0,3 -3,0 z M 27,150 l 3,0 0,3 -3,0 z M 51,150 l 3,0 0,3 -3,0 z M 57,150 l 3,0 0,3 -3,0 z M 60,150 l 3,0 0,3 -3,0 z M 75,150 l 3,0 0,3 -3,0 z M 87,150 l 3,0 0,3 -3,0 z M 93,150 l 3,0 0,3 -3,0 z M 108,150 l 3,0 0,3 -3,0 z M 111,150 l 3,0 0,3 -3,0 z M 114,150 l 3,0 0,3 -3,0 z M 123,150 l 3,0 0,3 -3,0 z M 126,150 l 3,0 0,3 -3,0 z M 129,150 l 3,0 0,3 -3,0 z M 132,150 l 3,0 0,3 -3,0 z M 147,150 l 3,0 0,3 -3,0 z M 159,150 l 3,0 0,3 -3,0 z M 168,150 l 3,0 0,3 -3,0 z M 174,150 l 3,0 0,3 -3,0 z M 183,150 l 3,0 0,3 -3,0 z M 201,150 l 3,0 0,3 -3,0 z M 213,150 l 3,0 0,3 -3,0 z M 219,150 l 3,0 0,3 -3,0 z M 231,150 l 3,0 0,3 -3,0 z M 234,150 l 3,0 0,3 -3,0 z M 3,153 l 3,0 0,3 -3,0 z M 6,153 l 3,0 0,3 -3,0 z M 15,153 l 3,0 0,3 -3,0 z M 21,153 l 3,0 0,3 -3,0 z M 27,153 l 3,0 0,3 -3,0 z M 30,153 l 3,0 0,3 -3,0 z M 39,153 l 3,0 0,3 -3,0 z M 42,153 l 3,0 0,3 -3,0 z M 63,153 l 3,0 0,3 -3,0 z M 75,153 l 3,0 0,3 -3,0 z M 81,153 l 3,0 0,3 -3,0 z M 87,153 l 3,0 0,3 -3,0 z M 102,153 l 3,0 0,3 -3,0 z M 108,153 l 3,0 0,3 -3,0 z M 114,153 l 3,0 0,3 -3,0 z M 117,153 l 3,0 0,3 -3,0 z M 120,153 l 3,0 0,3 -3,0 z M 123,153 l 3,0 0,3 -3,0 z M 126,153 l 3,0 0,3 -3,0 z M 132,153 l 3,0 0,3 -3,0 z M 138,153 l 3,0 0,3 -3,0 z M 141,153 l 3,0 0,3 -3,0 z M 147,153 l 3,0 0,3 -3,0 z M 153,153 l 3,0 0,3 -3,0 z M 159,153 l 3,0 0,3 -3,0 z M 162,153 l 3,0 0,3 -3,0 z M 174,153 l 3,0 0,3 -3,0 z M 183,153 l 3,0 0,3 -3,0 z M 198,153 l 3,0 0,3 -3,0 z M 207,153 l 3,0 0,3 -3,0 z M 210,153 l 3,0 0,3 -3,0 z M 216,153 l 3,0 0,3 -3,0 z M 219,153 l 3,0 0,3 -3,0 z M 225,153 l 3,0 0,3 -3,0 z M 231,153 l 3,0 0,3 -3,0 z M 237,153 l 3,0 0,3 -3,0 z M 240,153 l 3,0 0,3 -3,0 z M 243,153 l 3,0 0,3 -3,0 z M 3,156 l 3,0 0,3 -3,0 z M 9,156 l 3,0 0,3 -3,0 z M 15,156 l 3,0 0,3 -3,0 z M 27,156 l 3,0 0,3 -3,0 z M 39,156 l 3,0 0,3 -3,0 z M 48,156 l 3,0 0,3 -3,0 z M 57,156 l 3,0 0,3 -3,0 z M 75,156 l 3,0 0,3 -3,0 z M 87,156 l 3,0 0,3 -3,0 z M 90,156 l 3,0 0,3 -3,0 z M 93,156 l 3,0 0,3 -3,0 z M 111,156 l 3,0 0,3 -3,0 z M 123,156 l 3,0 0,3 -3,0 z M 126,156 l 3,0 0,3 -3,0 z M 138,156 l 3,0 0,3 -3,0 z M 147,156 l 3,0 0,3 -3,0 z M 159,156 l 3,0 0,3 -3,0 z M 162,156 l 3,0 0,3 -3,0 z M 171,156 l 3,0 0,3 -3,0 z M 183,156 l 3,0 0,3 -3,0 z M 195,156 l 3,0 0,3 -3,0 z M 198,156 l 3,0 0,3 -3,0 z M 201,156 l 3,0 0,3 -3,0 z M 207,156 l 3,0 0,3 -3,0 z M 210,156 l 3,0 0,3 -3,0 z M 219,156 l 3,0 0,3 -3,0 z M 231,156 l 3,0 0,3 -3,0 z M 234,156 l 3,0 0,3 -3,0 z M 243,156 l 3,0 0,3 -3,0 z M 9,159 l 3,0 0,3 -3,0 z M 12,159 l 3,0 0,3 -3,0 z M 15,159 l 3,0 0,3 -3,0 z M 18,159 l 3,0 0,3 -3,0 z M 21,159 l 3,0 0,3 -3,0 z M 24,159 l 3,0 0,3 -3,0 z M 27,159 l 3,0 0,3 -3,0 z M 30,159 l 3,0 0,3 -3,0 z M 33,159 l 3,0 0,3 -3,0 z M 39,159 l 3,0 0,3 -3,0 z M 42,159 l 3,0 0,3 -3,0 z M 51,159 l 3,0 0,3 -3,0 z M 57,159 l 3,0 0,3 -3,0 z M 63,159 l 3,0 0,3 -3,0 z M 66,159 l 3,0 0,3 -3,0 z M 69,159 l 3,0 0,3 -3,0 z M 75,159 l 3,0 0,3 -3,0 z M 78,159 l 3,0 0,3 -3,0 z M 81,159 l 3,0 0,3 -3,0 z M 84,159 l 3,0 0,3 -3,0 z M 87,159 l 3,0 0,3 -3,0 z M 90,159 l 3,0 0,3 -3,0 z M 96,159 l 3,0 0,3 -3,0 z M 99,159 l 3,0 0,3 -3,0 z M 111,159 l 3,0 0,3 -3,0 z M 114,159 l 3,0 0,3 -3,0 z M 132,159 l 3,0 0,3 -3,0 z M 135,159 l 3,0 0,3 -3,0 z M 138,159 l 3,0 0,3 -3,0 z M 147,159 l 3,0 0,3 -3,0 z M 150,159 l 3,0 0,3 -3,0 z M 153,159 l 3,0 0,3 -3,0 z M 156,159 l 3,0 0,3 -3,0 z M 159,159 l 3,0 0,3 -3,0 z M 171,159 l 3,0 0,3 -3,0 z M 177,159 l 3,0 0,3 -3,0 z M 183,159 l 3,0 0,3 -3,0 z M 213,159 l 3,0 0,3 -3,0 z M 216,159 l 3,0 0,3 -3,0 z M 219,159 l 3,0 0,3 -3,0 z M 222,159 l 3,0 0,3 -3,0 z M 225,159 l 3,0 0,3 -3,0 z M 228,159 l 3,0 0,3 -3,0 z M 231,159 l 3,0 0,3 -3,0 z M 234,159 l 3,0 0,3 -3,0 z M 237,159 l 3,0 0,3 -3,0 z M 243,159 l 3,0 0,3 -3,0 z M 3,162 l 3,0 0,3 -3,0 z M 6,162 l 3,0 0,3 -3,0 z M 9,162 l 3,0 0,3 -3,0 z M 24,162 l 3,0 0,3 -3,0 z M 27,162 l 3,0 0,3 -3,0 z M 33,162 l 3,0 0,3 -3,0 z M 42,162 l 3,0 0,3 -3,0 z M 45,162 l 3,0 0,3 -3,0 z M 48,162 l 3,0 0,3 -3,0 z M 60,162 l 3,0 0,3 -3,0 z M 66,162 l 3,0 0,3 -3,0 z M 81,162 l 3,0 0,3 -3,0 z M 87,162 l 3,0 0,3 -3,0 z M 90,162 l 3,0 0,3 -3,0 z M 99,162 l 3,0 0,3 -3,0 z M 102,162 l 3,0 0,3 -3,0 z M 105,162 l 3,0 0,3 -3,0 z M 111,162 l 3,0 0,3 -3,0 z M 126,162 l 3,0 0,3 -3,0 z M 135,162 l 3,0 0,3 -3,0 z M 138,162 l 3,0 0,3 -3,0 z M 147,162 l 3,0 0,3 -3,0 z M 153,162 l 3,0 0,3 -3,0 z M 165,162 l 3,0 0,3 -3,0 z M 168,162 l 3,0 0,3 -3,0 z M 180,162 l 3,0 0,3 -3,0 z M 195,162 l 3,0 0,3 -3,0 z M 198,162 l 3,0 0,3 -3,0 z M 201,162 l 3,0 0,3 -3,0 z M 204,162 l 3,0 0,3 -3,0 z M 207,162 l 3,0 0,3 -3,0 z M 219,162 l 3,0 0,3 -3,0 z M 222,162 l 3,0 0,3 -3,0 z M 228,162 l 3,0 0,3 -3,0 z M 237,162 l 3,0 0,3 -3,0 z M 6,165 l 3,0 0,3 -3,0 z M 9,165 l 3,0 0,3 -3,0 z M 12,165 l 3,0 0,3 -3,0 z M 15,165 l 3,0 0,3 -3,0 z M 21,165 l 3,0 0,3 -3,0 z M 33,165 l 3,0 0,3 -3,0 z M 36,165 l 3,0 0,3 -3,0 z M 45,165 l 3,0 0,3 -3,0 z M 57,165 l 3,0 0,3 -3,0 z M 60,165 l 3,0 0,3 -3,0 z M 63,165 l 3,0 0,3 -3,0 z M 69,165 l 3,0 0,3 -3,0 z M 72,165 l 3,0 0,3 -3,0 z M 75,165 l 3,0 0,3 -3,0 z M 90,165 l 3,0 0,3 -3,0 z M 93,165 l 3,0 0,3 -3,0 z M 96,165 l 3,0 0,3 -3,0 z M 99,165 l 3,0 0,3 -3,0 z M 105,165 l 3,0 0,3 -3,0 z M 111,165 l 3,0 0,3 -3,0 z M 114,165 l 3,0 0,3 -3,0 z M 120,165 l 3,0 0,3 -3,0 z M 123,165 l 3,0 0,3 -3,0 z M 129,165 l 3,0 0,3 -3,0 z M 132,165 l 3,0 0,3 -3,0 z M 135,165 l 3,0 0,3 -3,0 z M 138,165 l 3,0 0,3 -3,0 z M 147,165 l 3,0 0,3 -3,0 z M 150,165 l 3,0 0,3 -3,0 z M 162,165 l 3,0 0,3 -3,0 z M 165,165 l 3,0 0,3 -3,0 z M 174,165 l 3,0 0,3 -3,0 z M 177,165 l 3,0 0,3 -3,0 z M 180,165 l 3,0 0,3 -3,0 z M 198,165 l 3,0 0,3 -3,0 z M 201,165 l 3,0 0,3 -3,0 z M 207,165 l 3,0 0,3 -3,0 z M 213,165 l 3,0 0,3 -3,0 z M 216,165 l 3,0 0,3 -3,0 z M 219,165 l 3,0 0,3 -3,0 z M 222,165 l 3,0 0,3 -3,0 z M 228,165 l 3,0 0,3 -3,0 z M 237,165 l 3,0 0,3 -3,0 z M 240,165 l 3,0 0,3 -3,0 z M 6,168 l 3,0 0,3 -3,0 z M 12,168 l 3,0 0,3 -3,0 z M 15,168 l 3,0 0,3 -3,0 z M 33,168 l 3,0 0,3 -3,0 z M 54,168 l 3,0 0,3 -3,0 z M 60,168 l 3,0 0,3 -3,0 z M 63,168 l 3,0 0,3 -3,0 z M 75,168 l 3,0 0,3 -3,0 z M 84,168 l 3,0 0,3 -3,0 z M 90,168 l 3,0 0,3 -3,0 z M 99,168 l 3,0 0,3 -3,0 z M 102,168 l 3,0 0,3 -3,0 z M 108,168 l 3,0 0,3 -3,0 z M 114,168 l 3,0 0,3 -3,0 z M 120,168 l 3,0 0,3 -3,0 z M 126,168 l 3,0 0,3 -3,0 z M 129,168 l 3,0 0,3 -3,0 z M 144,168 l 3,0 0,3 -3,0 z M 150,168 l 3,0 0,3 -3,0 z M 156,168 l 3,0 0,3 -3,0 z M 159,168 l 3,0 0,3 -3,0 z M 162,168 l 3,0 0,3 -3,0 z M 165,168 l 3,0 0,3 -3,0 z M 168,168 l 3,0 0,3 -3,0 z M 177,168 l 3,0 0,3 -3,0 z M 180,168 l 3,0 0,3 -3,0 z M 186,168 l 3,0 0,3 -3,0 z M 192,168 l 3,0 0,3 -3,0 z M 195,168 l 3,0 0,3 -3,0 z M 201,168 l 3,0 0,3 -3,0 z M 222,168 l 3,0 0,3 -3,0 z M 228,168 l 3,0 0,3 -3,0 z M 234,168 l 3,0 0,3 -3,0 z M 9,171 l 3,0 0,3 -3,0 z M 12,171 l 3,0 0,3 -3,0 z M 21,171 l 3,0 0,3 -3,0 z M 27,171 l 3,0 0,3 -3,0 z M 30,171 l 3,0 0,3 -3,0 z M 36,171 l 3,0 0,3 -3,0 z M 39,171 l 3,0 0,3 -3,0 z M 45,171 l 3,0 0,3 -3,0 z M 54,171 l 3,0 0,3 -3,0 z M 66,171 l 3,0 0,3 -3,0 z M 69,171 l 3,0 0,3 -3,0 z M 81,171 l 3,0 0,3 -3,0 z M 84,171 l 3,0 0,3 -3,0 z M 90,171 l 3,0 0,3 -3,0 z M 93,171 l 3,0 0,3 -3,0 z M 105,171 l 3,0 0,3 -3,0 z M 111,171 l 3,0 0,3 -3,0 z M 114,171 l 3,0 0,3 -3,0 z M 132,171 l 3,0 0,3 -3,0 z M 138,171 l 3,0 0,3 -3,0 z M 141,171 l 3,0 0,3 -3,0 z M 144,171 l 3,0 0,3 -3,0 z M 147,171 l 3,0 0,3 -3,0 z M 153,171 l 3,0 0,3 -3,0 z M 156,171 l 3,0 0,3 -3,0 z M 159,171 l 3,0 0,3 -3,0 z M 168,171 l 3,0 0,3 -3,0 z M 183,171 l 3,0 0,3 -3,0 z M 189,171 l 3,0 0,3 -3,0 z M 195,171 l 3,0 0,3 -3,0 z M 201,171 l 3,0 0,3 -3,0 z M 207,171 l 3,0 0,3 -3,0 z M 210,171 l 3,0 0,3 -3,0 z M 222,171 l 3,0 0,3 -3,0 z M 6,174 l 3,0 0,3 -3,0 z M 9,174 l 3,0 0,3 -3,0 z M 24,174 l 3,0 0,3 -3,0 z M 27,174 l 3,0 0,3 -3,0 z M 36,174 l 3,0 0,3 -3,0 z M 39,174 l 3,0 0,3 -3,0 z M 45,174 l 3,0 0,3 -3,0 z M 48,174 l 3,0 0,3 -3,0 z M 51,174 l 3,0 0,3 -3,0 z M 57,174 l 3,0 0,3 -3,0 z M 60,174 l 3,0 0,3 -3,0 z M 63,174 l 3,0 0,3 -3,0 z M 78,174 l 3,0 0,3 -3,0 z M 81,174 l 3,0 0,3 -3,0 z M 87,174 l 3,0 0,3 -3,0 z M 90,174 l 3,0 0,3 -3,0 z M 96,174 l 3,0 0,3 -3,0 z M 99,174 l 3,0 0,3 -3,0 z M 102,174 l 3,0 0,3 -3,0 z M 105,174 l 3,0 0,3 -3,0 z M 108,174 l 3,0 0,3 -3,0 z M 114,174 l 3,0 0,3 -3,0 z M 120,174 l 3,0 0,3 -3,0 z M 126,174 l 3,0 0,3 -3,0 z M 129,174 l 3,0 0,3 -3,0 z M 132,174 l 3,0 0,3 -3,0 z M 144,174 l 3,0 0,3 -3,0 z M 150,174 l 3,0 0,3 -3,0 z M 162,174 l 3,0 0,3 -3,0 z M 168,174 l 3,0 0,3 -3,0 z M 171,174 l 3,0 0,3 -3,0 z M 174,174 l 3,0 0,3 -3,0 z M 180,174 l 3,0 0,3 -3,0 z M 183,174 l 3,0 0,3 -3,0 z M 189,174 l 3,0 0,3 -3,0 z M 192,174 l 3,0 0,3 -3,0 z M 198,174 l 3,0 0,3 -3,0 z M 207,174 l 3,0 0,3 -3,0 z M 210,174 l 3,0 0,3 -3,0 z M 213,174 l 3,0 0,3 -3,0 z M 216,174 l 3,0 0,3 -3,0 z M 219,174 l 3,0 0,3 -3,0 z M 222,174 l 3,0 0,3 -3,0 z M 225,174 l 3,0 0,3 -3,0 z M 234,174 l 3,0 0,3 -3,0 z M 237,174 l 3,0 0,3 -3,0 z M 6,177 l 3,0 0,3 -3,0 z M 9,177 l 3,0 0,3 -3,0 z M 12,177 l 3,0 0,3 -3,0 z M 18,177 l 3,0 0,3 -3,0 z M 21,177 l 3,0 0,3 -3,0 z M 24,177 l 3,0 0,3 -3,0 z M 27,177 l 3,0 0,3 -3,0 z M 30,177 l 3,0 0,3 -3,0 z M 33,177 l 3,0 0,3 -3,0 z M 39,177 l 3,0 0,3 -3,0 z M 42,177 l 3,0 0,3 -3,0 z M 45,177 l 3,0 0,3 -3,0 z M 48,177 l 3,0 0,3 -3,0 z M 51,177 l 3,0 0,3 -3,0 z M 54,177 l 3,0 0,3 -3,0 z M 57,177 l 3,0 0,3 -3,0 z M 60,177 l 3,0 0,3 -3,0 z M 72,177 l 3,0 0,3 -3,0 z M 81,177 l 3,0 0,3 -3,0 z M 84,177 l 3,0 0,3 -3,0 z M 87,177 l 3,0 0,3 -3,0 z M 93,177 l 3,0 0,3 -3,0 z M 99,177 l 3,0 0,3 -3,0 z M 105,177 l 3,0 0,3 -3,0 z M 108,177 l 3,0 0,3 -3,0 z M 117,177 l 3,0 0,3 -3,0 z M 123,177 l 3,0 0,3 -3,0 z M 129,177 l 3,0 0,3 -3,0 z M 132,177 l 3,0 0,3 -3,0 z M 138,177 l 3,0 0,3 -3,0 z M 147,177 l 3,0 0,3 -3,0 z M 150,177 l 3,0 0,3 -3,0 z M 159,177 l 3,0 0,3 -3,0 z M 174,177 l 3,0 0,3 -3,0 z M 183,177 l 3,0 0,3 -3,0 z M 186,177 l 3,0 0,3 -3,0 z M 192,177 l 3,0 0,3 -3,0 z M 204,177 l 3,0 0,3 -3,0 z M 210,177 l 3,0 0,3 -3,0 z M 213,177 l 3,0 0,3 -3,0 z M 216,177 l 3,0 0,3 -3,0 z M 219,177 l 3,0 0,3 -3,0 z M 222,177 l 3,0 0,3 -3,0 z M 225,177 l 3,0 0,3 -3,0 z M 228,177 l 3,0 0,3 -3,0 z M 237,177 l 3,0 0,3 -3,0 z M 240,177 l 3,0 0,3 -3,0 z M 9,180 l 3,0 0,3 -3,0 z M 12,180 l 3,0 0,3 -3,0 z M 15,180 l 3,0 0,3 -3,0 z M 33,180 l 3,0 0,3 -3,0 z M 39,180 l 3,0 0,3 -3,0 z M 42,180 l 3,0 0,3 -3,0 z M 45,180 l 3,0 0,3 -3,0 z M 60,180 l 3,0 0,3 -3,0 z M 69,180 l 3,0 0,3 -3,0 z M 78,180 l 3,0 0,3 -3,0 z M 81,180 l 3,0 0,3 -3,0 z M 90,180 l 3,0 0,3 -3,0 z M 93,180 l 3,0 0,3 -3,0 z M 99,180 l 3,0 0,3 -3,0 z M 105,180 l 3,0 0,3 -3,0 z M 108,180 l 3,0 0,3 -3,0 z M 111,180 l 3,0 0,3 -3,0 z M 120,180 l 3,0 0,3 -3,0 z M 123,180 l 3,0 0,3 -3,0 z M 126,180 l 3,0 0,3 -3,0 z M 132,180 l 3,0 0,3 -3,0 z M 141,180 l 3,0 0,3 -3,0 z M 150,180 l 3,0 0,3 -3,0 z M 156,180 l 3,0 0,3 -3,0 z M 159,180 l 3,0 0,3 -3,0 z M 162,180 l 3,0 0,3 -3,0 z M 165,180 l 3,0 0,3 -3,0 z M 171,180 l 3,0 0,3 -3,0 z M 174,180 l 3,0 0,3 -3,0 z M 180,180 l 3,0 0,3 -3,0 z M 198,180 l 3,0 0,3 -3,0 z M 204,180 l 3,0 0,3 -3,0 z M 207,180 l 3,0 0,3 -3,0 z M 210,180 l 3,0 0,3 -3,0 z M 213,180 l 3,0 0,3 -3,0 z M 219,180 l 3,0 0,3 -3,0 z M 222,180 l 3,0 0,3 -3,0 z M 225,180 l 3,0 0,3 -3,0 z M 228,180 l 3,0 0,3 -3,0 z M 231,180 l 3,0 0,3 -3,0 z M 234,180 l 3,0 0,3 -3,0 z M 237,180 l 3,0 0,3 -3,0 z M 240,180 l 3,0 0,3 -3,0 z M 243,180 l 3,0 0,3 -3,0 z M 6,183 l 3,0 0,3 -3,0 z M 12,183 l 3,0 0,3 -3,0 z M 15,183 l 3,0 0,3 -3,0 z M 18,183 l 3,0 0,3 -3,0 z M 21,183 l 3,0 0,3 -3,0 z M 27,183 l 3,0 0,3 -3,0 z M 30,183 l 3,0 0,3 -3,0 z M 33,183 l 3,0 0,3 -3,0 z M 36,183 l 3,0 0,3 -3,0 z M 39,183 l 3,0 0,3 -3,0 z M 45,183 l 3,0 0,3 -3,0 z M 48,183 l 3,0 0,3 -3,0 z M 57,183 l 3,0 0,3 -3,0 z M 78,183 l 3,0 0,3 -3,0 z M 81,183 l 3,0 0,3 -3,0 z M 90,183 l 3,0 0,3 -3,0 z M 102,183 l 3,0 0,3 -3,0 z M 105,183 l 3,0 0,3 -3,0 z M 111,183 l 3,0 0,3 -3,0 z M 117,183 l 3,0 0,3 -3,0 z M 120,183 l 3,0 0,3 -3,0 z M 123,183 l 3,0 0,3 -3,0 z M 126,183 l 3,0 0,3 -3,0 z M 129,183 l 3,0 0,3 -3,0 z M 132,183 l 3,0 0,3 -3,0 z M 138,183 l 3,0 0,3 -3,0 z M 141,183 l 3,0 0,3 -3,0 z M 147,183 l 3,0 0,3 -3,0 z M 150,183 l 3,0 0,3 -3,0 z M 153,183 l 3,0 0,3 -3,0 z M 156,183 l 3,0 0,3 -3,0 z M 165,183 l 3,0 0,3 -3,0 z M 168,183 l 3,0 0,3 -3,0 z M 186,183 l 3,0 0,3 -3,0 z M 189,183 l 3,0 0,3 -3,0 z M 192,183 l 3,0 0,3 -3,0 z M 195,183 l 3,0 0,3 -3,0 z M 201,183 l 3,0 0,3 -3,0 z M 204,183 l 3,0 0,3 -3,0 z M 213,183 l 3,0 0,3 -3,0 z M 222,183 l 3,0 0,3 -3,0 z M 228,183 l 3,0 0,3 -3,0 z M 234,183 l 3,0 0,3 -3,0 z M 243,183 l 3,0 0,3 -3,0 z M 3,186 l 3,0 0,3 -3,0 z M 9,186 l 3,0 0,3 -3,0 z M 12,186 l 3,0 0,3 -3,0 z M 18,186 l 3,0 0,3 -3,0 z M 24,186 l 3,0 0,3 -3,0 z M 27,186 l 3,0 0,3 -3,0 z M 30,186 l 3,0 0,3 -3,0 z M 33,186 l 3,0 0,3 -3,0 z M 36,186 l 3,0 0,3 -3,0 z M 42,186 l 3,0 0,3 -3,0 z M 45,186 l 3,0 0,3 -3,0 z M 48,186 l 3,0 0,3 -3,0 z M 57,186 l 3,0 0,3 -3,0 z M 63,186 l 3,0 0,3 -3,0 z M 66,186 l 3,0 0,3 -3,0 z M 69,186 l 3,0 0,3 -3,0 z M 81,186 l 3,0 0,3 -3,0 z M 84,186 l 3,0 0,3 -3,0 z M 90,186 l 3,0 0,3 -3,0 z M 96,186 l 3,0 0,3 -3,0 z M 99,186 l 3,0 0,3 -3,0 z M 105,186 l 3,0 0,3 -3,0 z M 108,186 l 3,0 0,3 -3,0 z M 111,186 l 3,0 0,3 -3,0 z M 120,186 l 3,0 0,3 -3,0 z M 129,186 l 3,0 0,3 -3,0 z M 135,186 l 3,0 0,3 -3,0 z M 141,186 l 3,0 0,3 -3,0 z M 144,186 l 3,0 0,3 -3,0 z M 150,186 l 3,0 0,3 -3,0 z M 153,186 l 3,0 0,3 -3,0 z M 156,186 l 3,0 0,3 -3,0 z M 162,186 l 3,0 0,3 -3,0 z M 165,186 l 3,0 0,3 -3,0 z M 168,186 l 3,0 0,3 -3,0 z M 171,186 l 3,0 0,3 -3,0 z M 174,186 l 3,0 0,3 -3,0 z M 177,186 l 3,0 0,3 -3,0 z M 180,186 l 3,0 0,3 -3,0 z M 195,186 l 3,0 0,3 -3,0 z M 198,186 l 3,0 0,3 -3,0 z M 201,186 l 3,0 0,3 -3,0 z M 204,186 l 3,0 0,3 -3,0 z M 210,186 l 3,0 0,3 -3,0 z M 222,186 l 3,0 0,3 -3,0 z M 225,186 l 3,0 0,3 -3,0 z M 228,186 l 3,0 0,3 -3,0 z M 234,186 l 3,0 0,3 -3,0 z M 240,186 l 3,0 0,3 -3,0 z M 3,189 l 3,0 0,3 -3,0 z M 12,189 l 3,0 0,3 -3,0 z M 21,189 l 3,0 0,3 -3,0 z M 27,189 l 3,0 0,3 -3,0 z M 30,189 l 3,0 0,3 -3,0 z M 36,189 l 3,0 0,3 -3,0 z M 48,189 l 3,0 0,3 -3,0 z M 57,189 l 3,0 0,3 -3,0 z M 63,189 l 3,0 0,3 -3,0 z M 72,189 l 3,0 0,3 -3,0 z M 75,189 l 3,0 0,3 -3,0 z M 78,189 l 3,0 0,3 -3,0 z M 81,189 l 3,0 0,3 -3,0 z M 84,189 l 3,0 0,3 -3,0 z M 90,189 l 3,0 0,3 -3,0 z M 93,189 l 3,0 0,3 -3,0 z M 99,189 l 3,0 0,3 -3,0 z M 102,189 l 3,0 0,3 -3,0 z M 111,189 l 3,0 0,3 -3,0 z M 117,189 l 3,0 0,3 -3,0 z M 123,189 l 3,0 0,3 -3,0 z M 129,189 l 3,0 0,3 -3,0 z M 135,189 l 3,0 0,3 -3,0 z M 138,189 l 3,0 0,3 -3,0 z M 150,189 l 3,0 0,3 -3,0 z M 156,189 l 3,0 0,3 -3,0 z M 159,189 l 3,0 0,3 -3,0 z M 162,189 l 3,0 0,3 -3,0 z M 168,189 l 3,0 0,3 -3,0 z M 174,189 l 3,0 0,3 -3,0 z M 177,189 l 3,0 0,3 -3,0 z M 180,189 l 3,0 0,3 -3,0 z M 183,189 l 3,0 0,3 -3,0 z M 186,189 l 3,0 0,3 -3,0 z M 195,189 l 3,0 0,3 -3,0 z M 207,189 l 3,0 0,3 -3,0 z M 210,189 l 3,0 0,3 -3,0 z M 216,189 l 3,0 0,3 -3,0 z M 222,189 l 3,0 0,3 -3,0 z M 231,189 l 3,0 0,3 -3,0 z M 240,189 l 3,0 0,3 -3,0 z M 6,192 l 3,0 0,3 -3,0 z M 9,192 l 3,0 0,3 -3,0 z M 12,192 l 3,0 0,3 -3,0 z M 15,192 l 3,0 0,3 -3,0 z M 18,192 l 3,0 0,3 -3,0 z M 24,192 l 3,0 0,3 -3,0 z M 27,192 l 3,0 0,3 -3,0 z M 36,192 l 3,0 0,3 -3,0 z M 42,192 l 3,0 0,3 -3,0 z M 45,192 l 3,0 0,3 -3,0 z M 51,192 l 3,0 0,3 -3,0 z M 57,192 l 3,0 0,3 -3,0 z M 60,192 l 3,0 0,3 -3,0 z M 69,192 l 3,0 0,3 -3,0 z M 72,192 l 3,0 0,3 -3,0 z M 75,192 l 3,0 0,3 -3,0 z M 87,192 l 3,0 0,3 -3,0 z M 93,192 l 3,0 0,3 -3,0 z M 99,192 l 3,0 0,3 -3,0 z M 102,192 l 3,0 0,3 -3,0 z M 114,192 l 3,0 0,3 -3,0 z M 117,192 l 3,0 0,3 -3,0 z M 120,192 l 3,0 0,3 -3,0 z M 123,192 l 3,0 0,3 -3,0 z M 135,192 l 3,0 0,3 -3,0 z M 141,192 l 3,0 0,3 -3,0 z M 144,192 l 3,0 0,3 -3,0 z M 147,192 l 3,0 0,3 -3,0 z M 153,192 l 3,0 0,3 -3,0 z M 162,192 l 3,0 0,3 -3,0 z M 165,192 l 3,0 0,3 -3,0 z M 183,192 l 3,0 0,3 -3,0 z M 195,192 l 3,0 0,3 -3,0 z M 207,192 l 3,0 0,3 -3,0 z M 213,192 l 3,0 0,3 -3,0 z M 222,192 l 3,0 0,3 -3,0 z M 231,192 l 3,0 0,3 -3,0 z M 234,192 l 3,0 0,3 -3,0 z M 237,192 l 3,0 0,3 -3,0 z M 243,192 l 3,0 0,3 -3,0 z M 12,195 l 3,0 0,3 -3,0 z M 21,195 l 3,0 0,3 -3,0 z M 27,195 l 3,0 0,3 -3,0 z M 36,195 l 3,0 0,3 -3,0 z M 51,195 l 3,0 0,3 -3,0 z M 54,195 l 3,0 0,3 -3,0 z M 57,195 l 3,0 0,3 -3,0 z M 63,195 l 3,0 0,3 -3,0 z M 84,195 l 3,0 0,3 -3,0 z M 87,195 l 3,0 0,3 -3,0 z M 90,195 l 3,0 0,3 -3,0 z M 96,195 l 3,0 0,3 -3,0 z M 102,195 l 3,0 0,3 -3,0 z M 126,195 l 3,0 0,3 -3,0 z M 135,195 l 3,0 0,3 -3,0 z M 141,195 l 3,0 0,3 -3,0 z M 147,195 l 3,0 0,3 -3,0 z M 150,195 l 3,0 0,3 -3,0 z M 159,195 l 3,0 0,3 -3,0 z M 162,195 l 3,0 0,3 -3,0 z M 177,195 l 3,0 0,3 -3,0 z M 183,195 l 3,0 0,3 -3,0 z M 192,195 l 3,0 0,3 -3,0 z M 195,195 l 3,0 0,3 -3,0 z M 198,195 l 3,0 0,3 -3,0 z M 201,195 l 3,0 0,3 -3,0 z M 204,195 l 3,0 0,3 -3,0 z M 207,195 l 3,0 0,3 -3,0 z M 213,195 l 3,0 0,3 -3,0 z M 219,195 l 3,0 0,3 -3,0 z M 231,195 l 3,0 0,3 -3,0 z M 237,195 l 3,0 0,3 -3,0 z M 243,195 l 3,0 0,3 -3,0 z M 3,198 l 3,0 0,3 -3,0 z M 12,198 l 3,0 0,3 -3,0 z M 15,198 l 3,0 0,3 -3,0 z M 24,198 l 3,0 0,3 -3,0 z M 27,198 l 3,0 0,3 -3,0 z M 30,198 l 3,0 0,3 -3,0 z M 36,198 l 3,0 0,3 -3,0 z M 39,198 l 3,0 0,3 -3,0 z M 45,198 l 3,0 0,3 -3,0 z M 48,198 l 3,0 0,3 -3,0 z M 51,198 l 3,0 0,3 -3,0 z M 54,198 l 3,0 0,3 -3,0 z M 60,198 l 3,0 0,3 -3,0 z M 66,198 l 3,0 0,3 -3,0 z M 87,198 l 3,0 0,3 -3,0 z M 90,198 l 3,0 0,3 -3,0 z M 93,198 l 3,0 0,3 -3,0 z M 99,198 l 3,0 0,3 -3,0 z M 108,198 l 3,0 0,3 -3,0 z M 114,198 l 3,0 0,3 -3,0 z M 117,198 l 3,0 0,3 -3,0 z M 120,198 l 3,0 0,3 -3,0 z M 129,198 l 3,0 0,3 -3,0 z M 132,198 l 3,0 0,3 -3,0 z M 144,198 l 3,0 0,3 -3,0 z M 147,198 l 3,0 0,3 -3,0 z M 150,198 l 3,0 0,3 -3,0 z M 153,198 l 3,0 0,3 -3,0 z M 159,198 l 3,0 0,3 -3,0 z M 162,198 l 3,0 0,3 -3,0 z M 168,198 l 3,0 0,3 -3,0 z M 171,198 l 3,0 0,3 -3,0 z M 174,198 l 3,0 0,3 -3,0 z M 177,198 l 3,0 0,3 -3,0 z M 180,198 l 3,0 0,3 -3,0 z M 183,198 l 3,0 0,3 -3,0 z M 189,198 l 3,0 0,3 -3,0 z M 192,198 l 3,0 0,3 -3,0 z M 195,198 l 3,0 0,3 -3,0 z M 201,198 l 3,0 0,3 -3,0 z M 207,198 l 3,0 0,3 -3,0 z M 210,198 l 3,0 0,3 -3,0 z M 219,198 l 3,0 0,3 -3,0 z M 225,198 l 3,0 0,3 -3,0 z M 228,198 l 3,0 0,3 -3,0 z M 231,198 l 3,0 0,3 -3,0 z M 243,198 l 3,0 0,3 -3,0 z M 3,201 l 3,0 0,3 -3,0 z M 12,201 l 3,0 0,3 -3,0 z M 15,201 l 3,0 0,3 -3,0 z M 21,201 l 3,0 0,3 -3,0 z M 51,201 l 3,0 0,3 -3,0 z M 54,201 l 3,0 0,3 -3,0 z M 66,201 l 3,0 0,3 -3,0 z M 72,201 l 3,0 0,3 -3,0 z M 84,201 l 3,0 0,3 -3,0 z M 87,201 l 3,0 0,3 -3,0 z M 93,201 l 3,0 0,3 -3,0 z M 96,201 l 3,0 0,3 -3,0 z M 99,201 l 3,0 0,3 -3,0 z M 111,201 l 3,0 0,3 -3,0 z M 117,201 l 3,0 0,3 -3,0 z M 126,201 l 3,0 0,3 -3,0 z M 129,201 l 3,0 0,3 -3,0 z M 132,201 l 3,0 0,3 -3,0 z M 135,201 l 3,0 0,3 -3,0 z M 138,201 l 3,0 0,3 -3,0 z M 141,201 l 3,0 0,3 -3,0 z M 144,201 l 3,0 0,3 -3,0 z M 147,201 l 3,0 0,3 -3,0 z M 162,201 l 3,0 0,3 -3,0 z M 165,201 l 3,0 0,3 -3,0 z M 168,201 l 3,0 0,3 -3,0 z M 177,201 l 3,0 0,3 -3,0 z M 180,201 l 3,0 0,3 -3,0 z M 183,201 l 3,0 0,3 -3,0 z M 186,201 l 3,0 0,3 -3,0 z M 192,201 l 3,0 0,3 -3,0 z M 204,201 l 3,0 0,3 -3,0 z M 213,201 l 3,0 0,3 -3,0 z M 216,201 l 3,0 0,3 -3,0 z M 219,201 l 3,0 0,3 -3,0 z M 234,201 l 3,0 0,3 -3,0 z M 237,201 l 3,0 0,3 -3,0 z M 12,204 l 3,0 0,3 -3,0 z M 15,204 l 3,0 0,3 -3,0 z M 48,204 l 3,0 0,3 -3,0 z M 60,204 l 3,0 0,3 -3,0 z M 66,204 l 3,0 0,3 -3,0 z M 69,204 l 3,0 0,3 -3,0 z M 75,204 l 3,0 0,3 -3,0 z M 78,204 l 3,0 0,3 -3,0 z M 84,204 l 3,0 0,3 -3,0 z M 87,204 l 3,0 0,3 -3,0 z M 93,204 l 3,0 0,3 -3,0 z M 96,204 l 3,0 0,3 -3,0 z M 102,204 l 3,0 0,3 -3,0 z M 108,204 l 3,0 0,3 -3,0 z M 114,204 l 3,0 0,3 -3,0 z M 120,204 l 3,0 0,3 -3,0 z M 129,204 l 3,0 0,3 -3,0 z M 135,204 l 3,0 0,3 -3,0 z M 138,204 l 3,0 0,3 -3,0 z M 141,204 l 3,0 0,3 -3,0 z M 147,204 l 3,0 0,3 -3,0 z M 150,204 l 3,0 0,3 -3,0 z M 153,204 l 3,0 0,3 -3,0 z M 159,204 l 3,0 0,3 -3,0 z M 165,204 l 3,0 0,3 -3,0 z M 168,204 l 3,0 0,3 -3,0 z M 180,204 l 3,0 0,3 -3,0 z M 186,204 l 3,0 0,3 -3,0 z M 189,204 l 3,0 0,3 -3,0 z M 192,204 l 3,0 0,3 -3,0 z M 195,204 l 3,0 0,3 -3,0 z M 213,204 l 3,0 0,3 -3,0 z M 216,204 l 3,0 0,3 -3,0 z M 222,204 l 3,0 0,3 -3,0 z M 228,204 l 3,0 0,3 -3,0 z M 234,204 l 3,0 0,3 -3,0 z M 240,204 l 3,0 0,3 -3,0 z M 3,207 l 3,0 0,3 -3,0 z M 12,207 l 3,0 0,3 -3,0 z M 15,207 l 3,0 0,3 -3,0 z M 18,207 l 3,0 0,3 -3,0 z M 21,207 l 3,0 0,3 -3,0 z M 27,207 l 3,0 0,3 -3,0 z M 36,207 l 3,0 0,3 -3,0 z M 42,207 l 3,0 0,3 -3,0 z M 48,207 l 3,0 0,3 -3,0 z M 60,207 l 3,0 0,3 -3,0 z M 81,207 l 3,0 0,3 -3,0 z M 87,207 l 3,0 0,3 -3,0 z M 90,207 l 3,0 0,3 -3,0 z M 93,207 l 3,0 0,3 -3,0 z M 96,207 l 3,0 0,3 -3,0 z M 102,207 l 3,0 0,3 -3,0 z M 114,207 l 3,0 0,3 -3,0 z M 123,207 l 3,0 0,3 -3,0 z M 126,207 l 3,0 0,3 -3,0 z M 129,207 l 3,0 0,3 -3,0 z M 135,207 l 3,0 0,3 -3,0 z M 141,207 l 3,0 0,3 -3,0 z M 144,207 l 3,0 0,3 -3,0 z M 147,207 l 3,0 0,3 -3,0 z M 150,207 l 3,0 0,3 -3,0 z M 156,207 l 3,0 0,3 -3,0 z M 162,207 l 3,0 0,3 -3,0 z M 165,207 l 3,0 0,3 -3,0 z M 177,207 l 3,0 0,3 -3,0 z M 183,207 l 3,0 0,3 -3,0 z M 186,207 l 3,0 0,3 -3,0 z M 201,207 l 3,0 0,3 -3,0 z M 219,207 l 3,0 0,3 -3,0 z M 225,207 l 3,0 0,3 -3,0 z M 237,207 l 3,0 0,3 -3,0 z M 240,207 l 3,0 0,3 -3,0 z M 243,207 l 3,0 0,3 -3,0 z M 3,210 l 3,0 0,3 -3,0 z M 9,210 l 3,0 0,3 -3,0 z M 18,210 l 3,0 0,3 -3,0 z M 24,210 l 3,0 0,3 -3,0 z M 36,210 l 3,0 0,3 -3,0 z M 45,210 l 3,0 0,3 -3,0 z M 48,210 l 3,0 0,3 -3,0 z M 54,210 l 3,0 0,3 -3,0 z M 60,210 l 3,0 0,3 -3,0 z M 75,210 l 3,0 0,3 -3,0 z M 78,210 l 3,0 0,3 -3,0 z M 81,210 l 3,0 0,3 -3,0 z M 84,210 l 3,0 0,3 -3,0 z M 87,210 l 3,0 0,3 -3,0 z M 93,210 l 3,0 0,3 -3,0 z M 96,210 l 3,0 0,3 -3,0 z M 99,210 l 3,0 0,3 -3,0 z M 102,210 l 3,0 0,3 -3,0 z M 108,210 l 3,0 0,3 -3,0 z M 111,210 l 3,0 0,3 -3,0 z M 117,210 l 3,0 0,3 -3,0 z M 120,210 l 3,0 0,3 -3,0 z M 123,210 l 3,0 0,3 -3,0 z M 129,210 l 3,0 0,3 -3,0 z M 132,210 l 3,0 0,3 -3,0 z M 141,210 l 3,0 0,3 -3,0 z M 147,210 l 3,0 0,3 -3,0 z M 153,210 l 3,0 0,3 -3,0 z M 159,210 l 3,0 0,3 -3,0 z M 171,210 l 3,0 0,3 -3,0 z M 195,210 l 3,0 0,3 -3,0 z M 198,210 l 3,0 0,3 -3,0 z M 201,210 l 3,0 0,3 -3,0 z M 204,210 l 3,0 0,3 -3,0 z M 207,210 l 3,0 0,3 -3,0 z M 213,210 l 3,0 0,3 -3,0 z M 216,210 l 3,0 0,3 -3,0 z M 222,210 l 3,0 0,3 -3,0 z M 228,210 l 3,0 0,3 -3,0 z M 6,213 l 3,0 0,3 -3,0 z M 9,213 l 3,0 0,3 -3,0 z M 12,213 l 3,0 0,3 -3,0 z M 21,213 l 3,0 0,3 -3,0 z M 24,213 l 3,0 0,3 -3,0 z M 30,213 l 3,0 0,3 -3,0 z M 33,213 l 3,0 0,3 -3,0 z M 39,213 l 3,0 0,3 -3,0 z M 42,213 l 3,0 0,3 -3,0 z M 45,213 l 3,0 0,3 -3,0 z M 48,213 l 3,0 0,3 -3,0 z M 57,213 l 3,0 0,3 -3,0 z M 60,213 l 3,0 0,3 -3,0 z M 66,213 l 3,0 0,3 -3,0 z M 69,213 l 3,0 0,3 -3,0 z M 75,213 l 3,0 0,3 -3,0 z M 81,213 l 3,0 0,3 -3,0 z M 90,213 l 3,0 0,3 -3,0 z M 93,213 l 3,0 0,3 -3,0 z M 102,213 l 3,0 0,3 -3,0 z M 108,213 l 3,0 0,3 -3,0 z M 111,213 l 3,0 0,3 -3,0 z M 114,213 l 3,0 0,3 -3,0 z M 123,213 l 3,0 0,3 -3,0 z M 126,213 l 3,0 0,3 -3,0 z M 129,213 l 3,0 0,3 -3,0 z M 132,213 l 3,0 0,3 -3,0 z M 135,213 l 3,0 0,3 -3,0 z M 138,213 l 3,0 0,3 -3,0 z M 141,213 l 3,0 0,3 -3,0 z M 144,213 l 3,0 0,3 -3,0 z M 150,213 l 3,0 0,3 -3,0 z M 156,213 l 3,0 0,3 -3,0 z M 159,213 l 3,0 0,3 -3,0 z M 165,213 l 3,0 0,3 -3,0 z M 168,213 l 3,0 0,3 -3,0 z M 171,213 l 3,0 0,3 -3,0 z M 174,213 l 3,0 0,3 -3,0 z M 183,213 l 3,0 0,3 -3,0 z M 186,213 l 3,0 0,3 -3,0 z M 189,213 l 3,0 0,3 -3,0 z M 192,213 l 3,0 0,3 -3,0 z M 195,213 l 3,0 0,3 -3,0 z M 204,213 l 3,0 0,3 -3,0 z M 213,213 l 3,0 0,3 -3,0 z M 219,213 l 3,0 0,3 -3,0 z M 222,213 l 3,0 0,3 -3,0 z M 225,213 l 3,0 0,3 -3,0 z M 228,213 l 3,0 0,3 -3,0 z M 243,213 l 3,0 0,3 -3,0 z M 6,216 l 3,0 0,3 -3,0 z M 18,216 l 3,0 0,3 -3,0 z M 24,216 l 3,0 0,3 -3,0 z M 33,216 l 3,0 0,3 -3,0 z M 39,216 l 3,0 0,3 -3,0 z M 45,216 l 3,0 0,3 -3,0 z M 51,216 l 3,0 0,3 -3,0 z M 54,216 l 3,0 0,3 -3,0 z M 69,216 l 3,0 0,3 -3,0 z M 72,216 l 3,0 0,3 -3,0 z M 78,216 l 3,0 0,3 -3,0 z M 84,216 l 3,0 0,3 -3,0 z M 87,216 l 3,0 0,3 -3,0 z M 93,216 l 3,0 0,3 -3,0 z M 96,216 l 3,0 0,3 -3,0 z M 99,216 l 3,0 0,3 -3,0 z M 102,216 l 3,0 0,3 -3,0 z M 105,216 l 3,0 0,3 -3,0 z M 111,216 l 3,0 0,3 -3,0 z M 117,216 l 3,0 0,3 -3,0 z M 120,216 l 3,0 0,3 -3,0 z M 126,216 l 3,0 0,3 -3,0 z M 129,216 l 3,0 0,3 -3,0 z M 135,216 l 3,0 0,3 -3,0 z M 141,216 l 3,0 0,3 -3,0 z M 147,216 l 3,0 0,3 -3,0 z M 150,216 l 3,0 0,3 -3,0 z M 165,216 l 3,0 0,3 -3,0 z M 168,216 l 3,0 0,3 -3,0 z M 171,216 l 3,0 0,3 -3,0 z M 174,216 l 3,0 0,3 -3,0 z M 183,216 l 3,0 0,3 -3,0 z M 192,216 l 3,0 0,3 -3,0 z M 198,216 l 3,0 0,3 -3,0 z M 204,216 l 3,0 0,3 -3,0 z M 207,216 l 3,0 0,3 -3,0 z M 219,216 l 3,0 0,3 -3,0 z M 228,216 l 3,0 0,3 -3,0 z M 234,216 l 3,0 0,3 -3,0 z M 237,216 l 3,0 0,3 -3,0 z M 240,216 l 3,0 0,3 -3,0 z M 6,219 l 3,0 0,3 -3,0 z M 9,219 l 3,0 0,3 -3,0 z M 12,219 l 3,0 0,3 -3,0 z M 21,219 l 3,0 0,3 -3,0 z M 24,219 l 3,0 0,3 -3,0 z M 33,219 l 3,0 0,3 -3,0 z M 39,219 l 3,0 0,3 -3,0 z M 42,219 l 3,0 0,3 -3,0 z M 48,219 l 3,0 0,3 -3,0 z M 51,219 l 3,0 0,3 -3,0 z M 60,219 l 3,0 0,3 -3,0 z M 66,219 l 3,0 0,3 -3,0 z M 75,219 l 3,0 0,3 -3,0 z M 78,219 l 3,0 0,3 -3,0 z M 81,219 l 3,0 0,3 -3,0 z M 84,219 l 3,0 0,3 -3,0 z M 87,219 l 3,0 0,3 -3,0 z M 93,219 l 3,0 0,3 -3,0 z M 96,219 l 3,0 0,3 -3,0 z M 102,219 l 3,0 0,3 -3,0 z M 108,219 l 3,0 0,3 -3,0 z M 111,219 l 3,0 0,3 -3,0 z M 114,219 l 3,0 0,3 -3,0 z M 117,219 l 3,0 0,3 -3,0 z M 120,219 l 3,0 0,3 -3,0 z M 126,219 l 3,0 0,3 -3,0 z M 129,219 l 3,0 0,3 -3,0 z M 132,219 l 3,0 0,3 -3,0 z M 144,219 l 3,0 0,3 -3,0 z M 147,219 l 3,0 0,3 -3,0 z M 150,219 l 3,0 0,3 -3,0 z M 153,219 l 3,0 0,3 -3,0 z M 156,219 l 3,0 0,3 -3,0 z M 159,219 l 3,0 0,3 -3,0 z M 162,219 l 3,0 0,3 -3,0 z M 165,219 l 3,0 0,3 -3,0 z M 171,219 l 3,0 0,3 -3,0 z M 177,219 l 3,0 0,3 -3,0 z M 189,219 l 3,0 0,3 -3,0 z M 195,219 l 3,0 0,3 -3,0 z M 198,219 l 3,0 0,3 -3,0 z M 210,219 l 3,0 0,3 -3,0 z M 213,219 l 3,0 0,3 -3,0 z M 219,219 l 3,0 0,3 -3,0 z M 222,219 l 3,0 0,3 -3,0 z M 225,219 l 3,0 0,3 -3,0 z M 228,219 l 3,0 0,3 -3,0 z M 231,219 l 3,0 0,3 -3,0 z M 240,219 l 3,0 0,3 -3,0 z M 243,219 l 3,0 0,3 -3,0 z M 27,222 l 3,0 0,3 -3,0 z M 36,222 l 3,0 0,3 -3,0 z M 42,222 l 3,0 0,3 -3,0 z M 45,222 l 3,0 0,3 -3,0 z M 48,222 l 3,0 0,3 -3,0 z M 54,222 l 3,0 0,3 -3,0 z M 60,222 l 3,0 0,3 -3,0 z M 69,222 l 3,0 0,3 -3,0 z M 75,222 l 3,0 0,3 -3,0 z M 87,222 l 3,0 0,3 -3,0 z M 93,222 l 3,0 0,3 -3,0 z M 96,222 l 3,0 0,3 -3,0 z M 99,222 l 3,0 0,3 -3,0 z M 105,222 l 3,0 0,3 -3,0 z M 117,222 l 3,0 0,3 -3,0 z M 123,222 l 3,0 0,3 -3,0 z M 126,222 l 3,0 0,3 -3,0 z M 129,222 l 3,0 0,3 -3,0 z M 132,222 l 3,0 0,3 -3,0 z M 141,222 l 3,0 0,3 -3,0 z M 144,222 l 3,0 0,3 -3,0 z M 147,222 l 3,0 0,3 -3,0 z M 159,222 l 3,0 0,3 -3,0 z M 168,222 l 3,0 0,3 -3,0 z M 171,222 l 3,0 0,3 -3,0 z M 177,222 l 3,0 0,3 -3,0 z M 201,222 l 3,0 0,3 -3,0 z M 207,222 l 3,0 0,3 -3,0 z M 213,222 l 3,0 0,3 -3,0 z M 216,222 l 3,0 0,3 -3,0 z M 219,222 l 3,0 0,3 -3,0 z M 231,222 l 3,0 0,3 -3,0 z M 234,222 l 3,0 0,3 -3,0 z M 240,222 l 3,0 0,3 -3,0 z M 3,225 l 3,0 0,3 -3,0 z M 6,225 l 3,0 0,3 -3,0 z M 9,225 l 3,0 0,3 -3,0 z M 12,225 l 3,0 0,3 -3,0 z M 15,225 l 3,0 0,3 -3,0 z M 18,225 l 3,0 0,3 -3,0 z M 21,225 l 3,0 0,3 -3,0 z M 27,225 l 3,0 0,3 -3,0 z M 33,225 l 3,0 0,3 -3,0 z M 36,225 l 3,0 0,3 -3,0 z M 51,225 l 3,0 0,3 -3,0 z M 60,225 l 3,0 0,3 -3,0 z M 72,225 l 3,0 0,3 -3,0 z M 75,225 l 3,0 0,3 -3,0 z M 81,225 l 3,0 0,3 -3,0 z M 87,225 l 3,0 0,3 -3,0 z M 90,225 l 3,0 0,3 -3,0 z M 93,225 l 3,0 0,3 -3,0 z M 96,225 l 3,0 0,3 -3,0 z M 99,225 l 3,0 0,3 -3,0 z M 102,225 l 3,0 0,3 -3,0 z M 108,225 l 3,0 0,3 -3,0 z M 114,225 l 3,0 0,3 -3,0 z M 120,225 l 3,0 0,3 -3,0 z M 126,225 l 3,0 0,3 -3,0 z M 132,225 l 3,0 0,3 -3,0 z M 135,225 l 3,0 0,3 -3,0 z M 138,225 l 3,0 0,3 -3,0 z M 141,225 l 3,0 0,3 -3,0 z M 144,225 l 3,0 0,3 -3,0 z M 147,225 l 3,0 0,3 -3,0 z M 153,225 l 3,0 0,3 -3,0 z M 159,225 l 3,0 0,3 -3,0 z M 162,225 l 3,0 0,3 -3,0 z M 171,225 l 3,0 0,3 -3,0 z M 177,225 l 3,0 0,3 -3,0 z M 180,225 l 3,0 0,3 -3,0 z M 183,225 l 3,0 0,3 -3,0 z M 189,225 l 3,0 0,3 -3,0 z M 195,225 l 3,0 0,3 -3,0 z M 198,225 l 3,0 0,3 -3,0 z M 207,225 l 3,0 0,3 -3,0 z M 219,225 l 3,0 0,3 -3,0 z M 225,225 l 3,0 0,3 -3,0 z M 231,225 l 3,0 0,3 -3,0 z M 237,225 l 3,0 0,3 -3,0 z M 243,225 l 3,0 0,3 -3,0 z M 3,228 l 3,0 0,3 -3,0 z M 21,228 l 3,0 0,3 -3,0 z M 30,228 l 3,0 0,3 -3,0 z M 33,228 l 3,0 0,3 -3,0 z M 36,228 l 3,0 0,3 -3,0 z M 42,228 l 3,0 0,3 -3,0 z M 48,228 l 3,0 0,3 -3,0 z M 51,228 l 3,0 0,3 -3,0 z M 54,228 l 3,0 0,3 -3,0 z M 63,228 l 3,0 0,3 -3,0 z M 66,228 l 3,0 0,3 -3,0 z M 75,228 l 3,0 0,3 -3,0 z M 87,228 l 3,0 0,3 -3,0 z M 90,228 l 3,0 0,3 -3,0 z M 93,228 l 3,0 0,3 -3,0 z M 96,228 l 3,0 0,3 -3,0 z M 102,228 l 3,0 0,3 -3,0 z M 111,228 l 3,0 0,3 -3,0 z M 114,228 l 3,0 0,3 -3,0 z M 117,228 l 3,0 0,3 -3,0 z M 120,228 l 3,0 0,3 -3,0 z M 126,228 l 3,0 0,3 -3,0 z M 132,228 l 3,0 0,3 -3,0 z M 138,228 l 3,0 0,3 -3,0 z M 147,228 l 3,0 0,3 -3,0 z M 159,228 l 3,0 0,3 -3,0 z M 162,228 l 3,0 0,3 -3,0 z M 165,228 l 3,0 0,3 -3,0 z M 171,228 l 3,0 0,3 -3,0 z M 186,228 l 3,0 0,3 -3,0 z M 189,228 l 3,0 0,3 -3,0 z M 192,228 l 3,0 0,3 -3,0 z M 195,228 l 3,0 0,3 -3,0 z M 198,228 l 3,0 0,3 -3,0 z M 201,228 l 3,0 0,3 -3,0 z M 207,228 l 3,0 0,3 -3,0 z M 219,228 l 3,0 0,3 -3,0 z M 231,228 l 3,0 0,3 -3,0 z M 237,228 l 3,0 0,3 -3,0 z M 243,228 l 3,0 0,3 -3,0 z M 3,231 l 3,0 0,3 -3,0 z M 9,231 l 3,0 0,3 -3,0 z M 12,231 l 3,0 0,3 -3,0 z M 15,231 l 3,0 0,3 -3,0 z M 21,231 l 3,0 0,3 -3,0 z M 27,231 l 3,0 0,3 -3,0 z M 30,231 l 3,0 0,3 -3,0 z M 42,231 l 3,0 0,3 -3,0 z M 45,231 l 3,0 0,3 -3,0 z M 51,231 l 3,0 0,3 -3,0 z M 54,231 l 3,0 0,3 -3,0 z M 66,231 l 3,0 0,3 -3,0 z M 69,231 l 3,0 0,3 -3,0 z M 72,231 l 3,0 0,3 -3,0 z M 75,231 l 3,0 0,3 -3,0 z M 78,231 l 3,0 0,3 -3,0 z M 81,231 l 3,0 0,3 -3,0 z M 84,231 l 3,0 0,3 -3,0 z M 87,231 l 3,0 0,3 -3,0 z M 93,231 l 3,0 0,3 -3,0 z M 102,231 l 3,0 0,3 -3,0 z M 105,231 l 3,0 0,3 -3,0 z M 111,231 l 3,0 0,3 -3,0 z M 117,231 l 3,0 0,3 -3,0 z M 126,231 l 3,0 0,3 -3,0 z M 129,231 l 3,0 0,3 -3,0 z M 138,231 l 3,0 0,3 -3,0 z M 147,231 l 3,0 0,3 -3,0 z M 150,231 l 3,0 0,3 -3,0 z M 153,231 l 3,0 0,3 -3,0 z M 156,231 l 3,0 0,3 -3,0 z M 159,231 l 3,0 0,3 -3,0 z M 162,231 l 3,0 0,3 -3,0 z M 171,231 l 3,0 0,3 -3,0 z M 180,231 l 3,0 0,3 -3,0 z M 183,231 l 3,0 0,3 -3,0 z M 189,231 l 3,0 0,3 -3,0 z M 204,231 l 3,0 0,3 -3,0 z M 210,231 l 3,0 0,3 -3,0 z M 219,231 l 3,0 0,3 -3,0 z M 222,231 l 3,0 0,3 -3,0 z M 225,231 l 3,0 0,3 -3,0 z M 228,231 l 3,0 0,3 -3,0 z M 231,231 l 3,0 0,3 -3,0 z M 234,231 l 3,0 0,3 -3,0 z M 237,231 l 3,0 0,3 -3,0 z M 3,234 l 3,0 0,3 -3,0 z M 9,234 l 3,0 0,3 -3,0 z M 12,234 l 3,0 0,3 -3,0 z M 15,234 l 3,0 0,3 -3,0 z M 21,234 l 3,0 0,3 -3,0 z M 27,234 l 3,0 0,3 -3,0 z M 30,234 l 3,0 0,3 -3,0 z M 36,234 l 3,0 0,3 -3,0 z M 39,234 l 3,0 0,3 -3,0 z M 42,234 l 3,0 0,3 -3,0 z M 45,234 l 3,0 0,3 -3,0 z M 48,234 l 3,0 0,3 -3,0 z M 54,234 l 3,0 0,3 -3,0 z M 63,234 l 3,0 0,3 -3,0 z M 66,234 l 3,0 0,3 -3,0 z M 69,234 l 3,0 0,3 -3,0 z M 72,234 l 3,0 0,3 -3,0 z M 75,234 l 3,0 0,3 -3,0 z M 81,234 l 3,0 0,3 -3,0 z M 84,234 l 3,0 0,3 -3,0 z M 87,234 l 3,0 0,3 -3,0 z M 90,234 l 3,0 0,3 -3,0 z M 96,234 l 3,0 0,3 -3,0 z M 108,234 l 3,0 0,3 -3,0 z M 111,234 l 3,0 0,3 -3,0 z M 114,234 l 3,0 0,3 -3,0 z M 117,234 l 3,0 0,3 -3,0 z M 129,234 l 3,0 0,3 -3,0 z M 132,234 l 3,0 0,3 -3,0 z M 138,234 l 3,0 0,3 -3,0 z M 150,234 l 3,0 0,3 -3,0 z M 156,234 l 3,0 0,3 -3,0 z M 159,234 l 3,0 0,3 -3,0 z M 168,234 l 3,0 0,3 -3,0 z M 189,234 l 3,0 0,3 -3,0 z M 192,234 l 3,0 0,3 -3,0 z M 195,234 l 3,0 0,3 -3,0 z M 201,234 l 3,0 0,3 -3,0 z M 207,234 l 3,0 0,3 -3,0 z M 219,234 l 3,0 0,3 -3,0 z M 222,234 l 3,0 0,3 -3,0 z M 225,234 l 3,0 0,3 -3,0 z M 231,234 l 3,0 0,3 -3,0 z M 3,237 l 3,0 0,3 -3,0 z M 9,237 l 3,0 0,3 -3,0 z M 12,237 l 3,0 0,3 -3,0 z M 15,237 l 3,0 0,3 -3,0 z M 21,237 l 3,0 0,3 -3,0 z M 27,237 l 3,0 0,3 -3,0 z M 36,237 l 3,0 0,3 -3,0 z M 39,237 l 3,0 0,3 -3,0 z M 48,237 l 3,0 0,3 -3,0 z M 66,237 l 3,0 0,3 -3,0 z M 69,237 l 3,0 0,3 -3,0 z M 84,237 l 3,0 0,3 -3,0 z M 87,237 l 3,0 0,3 -3,0 z M 90,237 l 3,0 0,3 -3,0 z M 93,237 l 3,0 0,3 -3,0 z M 102,237 l 3,0 0,3 -3,0 z M 108,237 l 3,0 0,3 -3,0 z M 141,237 l 3,0 0,3 -3,0 z M 147,237 l 3,0 0,3 -3,0 z M 150,237 l 3,0 0,3 -3,0 z M 153,237 l 3,0 0,3 -3,0 z M 165,237 l 3,0 0,3 -3,0 z M 174,237 l 3,0 0,3 -3,0 z M 177,237 l 3,0 0,3 -3,0 z M 183,237 l 3,0 0,3 -3,0 z M 189,237 l 3,0 0,3 -3,0 z M 195,237 l 3,0 0,3 -3,0 z M 198,237 l 3,0 0,3 -3,0 z M 207,237 l 3,0 0,3 -3,0 z M 210,237 l 3,0 0,3 -3,0 z M 213,237 l 3,0 0,3 -3,0 z M 216,237 l 3,0 0,3 -3,0 z M 219,237 l 3,0 0,3 -3,0 z M 225,237 l 3,0 0,3 -3,0 z M 234,237 l 3,0 0,3 -3,0 z M 237,237 l 3,0 0,3 -3,0 z M 3,240 l 3,0 0,3 -3,0 z M 21,240 l 3,0 0,3 -3,0 z M 27,240 l 3,0 0,3 -3,0 z M 39,240 l 3,0 0,3 -3,0 z M 45,240 l 3,0 0,3 -3,0 z M 48,240 l 3,0 0,3 -3,0 z M 63,240 l 3,0 0,3 -3,0 z M 72,240 l 3,0 0,3 -3,0 z M 78,240 l 3,0 0,3 -3,0 z M 81,240 l 3,0 0,3 -3,0 z M 84,240 l 3,0 0,3 -3,0 z M 90,240 l 3,0 0,3 -3,0 z M 102,240 l 3,0 0,3 -3,0 z M 111,240 l 3,0 0,3 -3,0 z M 120,240 l 3,0 0,3 -3,0 z M 135,240 l 3,0 0,3 -3,0 z M 138,240 l 3,0 0,3 -3,0 z M 141,240 l 3,0 0,3 -3,0 z M 144,240 l 3,0 0,3 -3,0 z M 156,240 l 3,0 0,3 -3,0 z M 162,240 l 3,0 0,3 -3,0 z M 165,240 l 3,0 0,3 -3,0 z M 174,240 l 3,0 0,3 -3,0 z M 177,240 l 3,0 0,3 -3,0 z M 180,240 l 3,0 0,3 -3,0 z M 186,240 l 3,0 0,3 -3,0 z M 189,240 l 3,0 0,3 -3,0 z M 192,240 l 3,0 0,3 -3,0 z M 195,240 l 3,0 0,3 -3,0 z M 201,240 l 3,0 0,3 -3,0 z M 207,240 l 3,0 0,3 -3,0 z M 210,240 l 3,0 0,3 -3,0 z M 216,240 l 3,0 0,3 -3,0 z M 219,240 l 3,0 0,3 -3,0 z M 222,240 l 3,0 0,3 -3,0 z M 228,240 l 3,0 0,3 -3,0 z M 234,240 l 3,0 0,3 -3,0 z M 237,240 l 3,0 0,3 -3,0 z M 3,243 l 3,0 0,3 -3,0 z M 6,243 l 3,0 0,3 -3,0 z M 9,243 l 3,0 0,3 -3,0 z M 12,243 l 3,0 0,3 -3,0 z M 15,243 l 3,0 0,3 -3,0 z M 18,243 l 3,0 0,3 -3,0 z M 21,243 l 3,0 0,3 -3,0 z M 27,243 l 3,0 0,3 -3,0 z M 30,243 l 3,0 0,3 -3,0 z M 36,243 l 3,0 0,3 -3,0 z M 39,243 l 3,0 0,3 -3,0 z M 48,243 l 3,0 0,3 -3,0 z M 51,243 l 3,0 0,3 -3,0 z M 54,243 l 3,0 0,3 -3,0 z M 60,243 l 3,0 0,3 -3,0 z M 63,243 l 3,0 0,3 -3,0 z M 66,243 l 3,0 0,3 -3,0 z M 69,243 l 3,0 0,3 -3,0 z M 84,243 l 3,0 0,3 -3,0 z M 87,243 l 3,0 0,3 -3,0 z M 93,243 l 3,0 0,3 -3,0 z M 96,243 l 3,0 0,3 -3,0 z M 105,243 l 3,0 0,3 -3,0 z M 108,243 l 3,0 0,3 -3,0 z M 111,243 l 3,0 0,3 -3,0 z M 114,243 l 3,0 0,3 -3,0 z M 117,243 l 3,0 0,3 -3,0 z M 123,243 l 3,0 0,3 -3,0 z M 129,243 l 3,0 0,3 -3,0 z M 132,243 l 3,0 0,3 -3,0 z M 144,243 l 3,0 0,3 -3,0 z M 147,243 l 3,0 0,3 -3,0 z M 153,243 l 3,0 0,3 -3,0 z M 162,243 l 3,0 0,3 -3,0 z M 174,243 l 3,0 0,3 -3,0 z M 183,243 l 3,0 0,3 -3,0 z M 186,243 l 3,0 0,3 -3,0 z M 189,243 l 3,0 0,3 -3,0 z M 195,243 l 3,0 0,3 -3,0 z M 201,243 l 3,0 0,3 -3,0 z M 204,243 l 3,0 0,3 -3,0 z M 210,243 l 3,0 0,3 -3,0 z M 213,243 l 3,0 0,3 -3,0 z M 216,243 l 3,0 0,3 -3,0 z M 219,243 l 3,0 0,3 -3,0 z M 228,243 l 3,0 0,3 -3,0 z M 237,243 l 3,0 0,3 -3,0 z M 240,243 l 3,0 0,3 -3,0 z " />
	</g>
</svg>
